# 3ds Max Wavefront OBJ Exporter v0.99 - (c)2007 guruware
# File Created: 27.08.2025 21:56:28

mtllib PcSetup.mtl

#
# object Box003
#

v  -100.2251 22.6496 -55.9754
v  -100.2251 22.6496 -63.3686
v  -78.5493 22.6496 -63.3686
v  -78.5493 22.6496 -55.9754
v  -100.2251 23.3155 -55.9754
v  -78.5493 23.3155 -55.9754
v  -78.5493 23.3155 -63.3686
v  -100.2251 23.3155 -63.3686
# 8 vertices

vn -0.5774 -0.5774 0.5774
vn -0.5774 -0.5774 -0.5774
vn 0.5774 -0.5774 -0.5774
vn 0.5774 -0.5774 0.5774
vn -0.5774 0.5774 0.5774
vn 0.5774 0.5774 0.5774
vn 0.5774 0.5774 -0.5774
vn -0.5774 0.5774 -0.5774
# 8 vertex normals

vt 0.0000 0.6983 0.0000
vt 0.0000 0.5321 0.0000
vt 0.4874 0.5321 0.0000
vt 0.4874 0.6983 0.0000
vt 0.4899 0.3645 0.0000
vt 0.9773 0.3645 0.0000
vt 0.9773 0.5308 0.0000
vt 0.4899 0.5308 0.0000
vt 0.4359 0.9045 0.0000
vt 0.9233 0.9045 0.0000
vt 0.9233 0.9272 0.0000
vt 0.4359 0.9272 0.0000
vt 0.7046 0.3187 0.0000
vt 0.8709 0.3187 0.0000
vt 0.8709 0.3414 0.0000
vt 0.7046 0.3414 0.0000
vt 0.0000 0.9286 0.0000
vt 0.4874 0.9286 0.0000
vt 0.4874 0.9512 0.0000
vt 0.0000 0.9512 0.0000
vt 0.1686 0.4858 0.0000
vt 0.3348 0.4858 0.0000
vt 0.3348 0.5085 0.0000
vt 0.1686 0.5085 0.0000
# 24 texture coords

o Box003
g Box003
usemtl wire_086086086
s 2
f 1/1/1 2/2/2 3/3/3 4/4/4 
s 4
f 5/5/5 6/6/6 7/7/7 8/8/8 
s 8
f 1/9/1 4/10/4 6/11/6 5/12/5 
s 16
f 4/13/4 3/14/3 7/15/7 6/16/6 
s 32
f 3/17/3 2/18/2 8/19/8 7/20/7 
s 64
f 2/21/2 1/22/1 5/23/5 8/24/8 
# 6 polygons

#
# object Sphere001
#

v  -63.1686 23.6104 -56.7272
v  -63.1259 23.5678 -56.4418
v  -62.8132 23.7790 -56.4418
v  -62.8366 23.8347 -56.7272
v  -62.6236 23.8149 -56.4418
v  -62.6352 23.8728 -56.7272
v  -62.4339 23.9108 -56.7272
v  -62.4339 23.8508 -56.4418
v  -62.2442 23.8150 -56.4418
v  -62.2326 23.8729 -56.7272
v  -62.0312 23.8350 -56.7272
v  -62.0546 23.7793 -56.4418
v  -61.7418 23.5678 -56.4418
v  -61.6992 23.6104 -56.7272
v  -63.4457 22.8499 -56.4347
v  -63.3448 22.8490 -56.1628
v  -63.2413 23.1852 -56.1622
v  -63.3308 23.2235 -56.4343
v  -63.0844 23.4774 -56.1627
v  -63.1564 23.5482 -56.4347
v  -63.0567 23.4986 -56.1788
v  -62.7753 23.6887 -56.1788
v  -62.6046 23.7210 -56.1788
v  -62.4339 23.7533 -56.1788
v  -62.2632 23.7211 -56.1788
v  -62.0925 23.6889 -56.1788
v  -61.8111 23.4986 -56.1788
v  -61.7113 23.5482 -56.4347
v  -61.7833 23.4774 -56.1627
v  -61.6264 23.1852 -56.1622
v  -61.5369 23.2235 -56.4343
v  -61.5230 22.8490 -56.1628
v  -61.4221 22.8499 -56.4347
v  -63.2089 22.8477 -55.9242
v  -63.1208 23.1336 -55.9236
v  -62.9875 23.3822 -55.9241
v  -62.9636 23.4054 -55.9483
v  -62.7242 23.5671 -55.9483
v  -62.5791 23.5945 -55.9483
v  -62.4339 23.6220 -55.9483
v  -62.2887 23.5946 -55.9483
v  -62.1436 23.5673 -55.9483
v  -61.9042 23.4054 -55.9483
v  -61.8803 23.3822 -55.9241
v  -61.7470 23.1336 -55.9236
v  -61.6589 22.8477 -55.9242
v  -62.9735 23.0707 -55.7272
v  -62.8685 23.2660 -55.7273
v  -62.8501 23.2919 -55.7591
v  -62.6620 23.4189 -55.7591
v  -62.5479 23.4405 -55.7591
v  -62.4339 23.4621 -55.7591
v  -62.3198 23.4406 -55.7591
v  -62.2058 23.4191 -55.7591
v  -62.0177 23.2919 -55.7591
v  -61.9993 23.2660 -55.7273
v  -61.8943 23.0706 -55.7272
v  -62.8574 23.8503 -58.7249
v  -62.5816 23.8892 -58.8022
v  -62.5816 23.8059 -59.2575
v  -62.8574 23.7671 -59.1802
v  -62.5816 23.7628 -59.3968
v  -62.8574 23.7239 -59.3195
v  -62.4429 23.7611 -59.3656
v  -62.4106 23.7570 -59.3656
v  -62.4102 23.7499 -59.4278
v  -62.4429 23.7609 -59.4278
v  -62.3117 23.8895 -58.8023
v  -62.0109 23.8508 -58.7250
v  -62.0109 23.7676 -59.1803
v  -62.3117 23.8062 -59.2576
v  -62.4753 23.7569 -59.3656
v  -62.4757 23.7499 -59.4278
v  -62.0109 23.7244 -59.3196
v  -62.3117 23.7631 -59.3969
v  -62.3117 23.6336 -59.8148
v  -62.0109 23.5949 -59.7375
v  -62.0109 23.5456 -59.9707
v  -62.3117 23.5843 -60.0480
v  -62.8574 23.5944 -59.7374
v  -62.5816 23.6332 -59.8147
v  -62.5816 23.5840 -60.0479
v  -62.8574 23.5451 -59.9706
v  -62.4339 23.5637 -59.8180
v  -62.3325 23.5916 -59.7742
v  -62.3325 23.5423 -60.0074
v  -62.4339 23.5145 -60.0512
v  -62.5598 23.5915 -59.7743
v  -62.5598 23.5423 -60.0075
v  -62.3241 23.6005 -59.7989
v  -62.3241 23.5512 -60.0322
v  -62.5687 23.6003 -59.7989
v  -62.5687 23.5511 -60.0322
v  -63.1830 23.5444 -59.0863
v  -63.1830 23.5888 -58.7441
v  -63.1959 23.6217 -58.7598
v  -63.1959 23.5773 -59.1020
v  -62.8445 23.8174 -58.7092
v  -62.5687 23.8563 -58.7864
v  -62.5687 23.7730 -59.2418
v  -62.5687 23.7299 -59.3811
v  -62.8445 23.5122 -59.9549
v  -63.1830 23.4226 -59.6504
v  -63.1959 23.4555 -59.6661
v  -63.1830 23.4731 -59.4223
v  -63.1959 23.5060 -59.4380
v  -63.1830 23.4909 -59.3383
v  -63.1959 23.5238 -59.3540
v  -61.6848 23.4731 -59.4223
v  -61.6848 23.4226 -59.6504
v  -61.6724 23.4557 -59.6662
v  -61.6724 23.5061 -59.4381
v  -62.0233 23.5125 -59.9549
v  -62.3241 23.6437 -59.6596
v  -62.3117 23.6767 -59.6755
v  -62.3241 23.7732 -59.2418
v  -62.3241 23.8564 -58.7864
v  -62.0233 23.8177 -58.7092
v  -61.6848 23.5888 -58.7441
v  -61.6724 23.6218 -58.7599
v  -61.6848 23.5444 -59.0863
v  -61.6724 23.5774 -59.1022
v  -61.6848 23.5265 -59.1703
v  -61.6724 23.5596 -59.1862
v  -63.1758 23.6422 -57.3228
v  -63.1686 23.5744 -56.7394
v  -63.1758 23.6782 -57.3106
v  -63.1259 23.5318 -56.4540
v  -63.0567 23.4625 -56.1910
v  -62.9636 23.3694 -55.9605
v  -62.8501 23.2559 -55.7713
v  -62.7381 23.2165 -55.6860
v  -62.7381 23.2525 -55.6738
v  -62.5846 23.2300 -55.6411
v  -62.5846 23.2660 -55.6289
v  -62.5093 23.2325 -55.6373
v  -62.5093 23.2685 -55.6250
v  -62.4339 23.2351 -55.6334
v  -62.4339 23.2711 -55.6212
v  -62.3586 23.2347 -55.6375
v  -62.3586 23.2707 -55.6253
v  -62.2833 23.2344 -55.6416
v  -62.2833 23.2704 -55.6293
v  -62.1294 23.2179 -55.6866
v  -62.1294 23.2539 -55.6743
v  -62.0177 23.2559 -55.7713
v  -61.9042 23.3694 -55.9605
v  -61.8111 23.4625 -56.1910
v  -61.7418 23.5318 -56.4540
v  -61.6992 23.5744 -56.7394
v  -61.6920 23.6422 -57.3228
v  -61.6920 23.6782 -57.3106
v  -61.6869 23.6457 -58.0338
v  -61.6869 23.6817 -58.0216
v  -61.6848 23.6248 -58.7319
v  -62.0233 23.8537 -58.6970
v  -62.3241 23.8924 -58.7742
v  -62.4339 23.8951 -58.6112
v  -62.4339 23.9311 -58.5989
v  -62.5687 23.8923 -58.7742
v  -62.8445 23.8535 -58.6970
v  -63.1830 23.6248 -58.7319
v  -63.1809 23.6457 -58.0338
v  -63.1809 23.6817 -58.0216
v  -62.0233 23.1789 -60.0922
v  -62.3241 23.2176 -60.1694
v  -62.5687 23.2174 -60.1694
v  -62.8445 23.1786 -60.0922
v  -62.3325 23.2087 -60.1447
v  -62.4339 23.1808 -60.1885
v  -62.5598 23.2086 -60.1447
v  -62.0233 22.8580 -60.0861
v  -62.3241 22.8967 -60.1634
v  -62.5687 22.8965 -60.1634
v  -62.8445 22.8577 -60.0861
v  -62.3325 22.8878 -60.1387
v  -62.4339 22.8599 -60.1824
v  -62.5598 22.8877 -60.1387
v  -62.5554 23.7399 -59.2361
v  -62.4345 23.7311 -59.2532
v  -62.4429 23.7067 -59.3405
v  -62.4976 23.6989 -59.3656
v  -62.3362 23.7400 -59.2361
v  -62.3883 23.6989 -59.3656
v  -62.3362 23.7013 -59.3609
v  -62.3883 23.6797 -59.4278
v  -62.3362 23.5853 -59.7353
v  -62.4345 23.5764 -59.7524
v  -62.4429 23.6140 -59.6395
v  -62.3883 23.6218 -59.6144
v  -62.5554 23.5851 -59.7353
v  -62.4976 23.6217 -59.6144
v  -62.5554 23.6238 -59.6105
v  -62.4976 23.6410 -59.5522
v  -62.4429 23.7304 -59.3405
v  -62.4976 23.7226 -59.3656
v  -62.3883 23.7226 -59.3656
v  -62.3883 23.7034 -59.4278
v  -62.4429 23.6377 -59.6395
v  -62.3883 23.6455 -59.6144
v  -62.4976 23.6455 -59.6144
v  -62.4976 23.6647 -59.5522
v  -62.4429 23.7505 -59.3405
v  -62.4976 23.7427 -59.3656
v  -62.3883 23.7427 -59.3656
v  -62.3883 23.7235 -59.4278
v  -62.4429 23.6578 -59.6395
v  -62.3883 23.6656 -59.6144
v  -62.4976 23.6655 -59.6144
v  -62.4976 23.6848 -59.5522
v  -63.5186 22.8406 -57.3216
v  -63.3957 23.2785 -57.3210
v  -63.4021 23.2825 -58.0339
v  -63.5259 22.8447 -58.0330
v  -63.2088 23.6588 -57.3205
v  -63.2139 23.6623 -58.0344
v  -61.6590 23.6588 -57.3205
v  -61.4721 23.2785 -57.3210
v  -61.4657 23.2825 -58.0339
v  -61.6539 23.6623 -58.0344
v  -61.3492 22.8406 -57.3216
v  -61.3419 22.8447 -58.0330
v  -63.5082 22.8503 -56.7313
v  -63.3864 23.2468 -56.7305
v  -63.2010 23.5914 -56.7303
v  -61.6668 23.5914 -56.7303
v  -61.4814 23.2468 -56.7305
v  -61.3596 22.8503 -56.7313
v  -63.0429 22.8462 -55.7278
v  -61.8249 22.8461 -55.7278
v  -63.4044 23.2549 -58.7458
v  -63.5286 22.8505 -58.7447
v  -63.2156 23.6062 -58.7469
v  -61.4633 23.2549 -58.7458
v  -61.6522 23.6062 -58.7469
v  -61.3391 22.8505 -58.7447
v  -62.4342 23.8737 -58.6414
v  -62.5629 23.8364 -58.8079
v  -62.3293 23.8365 -58.8078
v  -62.3301 23.7573 -59.2392
v  -62.3241 23.7300 -59.3811
v  -62.3307 23.7158 -59.3729
v  -62.5687 23.6435 -59.6596
v  -62.5604 23.6329 -59.6405
v  -62.5621 23.7571 -59.2394
v  -62.8405 23.9260 -57.4088
v  -62.8432 23.9246 -58.0545
v  -62.6372 23.9681 -57.4474
v  -62.5930 23.9832 -58.1036
v  -62.2306 23.9683 -57.4474
v  -62.4339 24.0102 -57.4861
v  -62.0273 23.9263 -57.4088
v  -62.0247 23.9249 -58.0545
v  -62.8533 22.8329 -55.5819
v  -62.7949 23.0346 -55.5910
v  -62.7500 23.2251 -55.6370
v  -62.1175 23.2265 -55.6376
v  -62.0725 23.0379 -55.5923
v  -62.0147 22.8406 -55.5854
v  -62.5116 23.2416 -55.5859
v  -62.5257 23.0314 -55.5103
v  -62.4339 23.0340 -55.5002
v  -62.4339 23.2445 -55.5819
v  -62.2780 23.2431 -55.5902
v  -62.3563 23.2438 -55.5861
v  -62.3421 23.0332 -55.5110
v  -62.2497 23.0325 -55.5219
v  -62.5407 22.8205 -55.4817
v  -62.4343 22.8193 -55.4686
v  -62.3277 22.8239 -55.4829
v  -62.2207 22.8288 -55.4974
v  -62.6181 23.0288 -55.5204
v  -62.6478 22.8221 -55.4949
v  -62.5899 23.2388 -55.5898
v  -63.4041 23.2303 -59.0868
v  -63.5284 22.8474 -59.0834
v  -63.2150 23.5626 -59.0913
v  -61.4637 23.2303 -59.0868
v  -61.6528 23.5626 -59.0913
v  -61.3394 22.8474 -59.0834
v  -63.4036 23.1902 -59.4252
v  -63.5281 22.8422 -59.4219
v  -63.5282 22.8435 -59.3372
v  -63.4037 23.2002 -59.3406
v  -63.2142 23.4923 -59.4291
v  -63.2144 23.5099 -59.3447
v  -61.4638 23.2203 -59.1714
v  -61.6530 23.5451 -59.1757
v  -61.3395 22.8461 -59.1680
v  -63.4034 23.1606 -59.6497
v  -63.5279 22.8382 -59.6473
v  -63.2137 23.4425 -59.6577
v  -61.4642 23.1902 -59.4252
v  -61.4643 23.1606 -59.6497
v  -61.6540 23.4425 -59.6577
v  -61.6536 23.4923 -59.4291
v  -61.3397 22.8422 -59.4219
v  -61.3399 22.8382 -59.6473
v  -62.4331 24.0318 -58.0700
v  -62.2863 23.9830 -58.1031
v  -62.4345 23.8492 -58.6711
v  -62.3362 23.8146 -58.8281
v  -62.5554 23.8144 -58.8281
v  -63.1959 23.5594 -59.1860
v  -63.4903 22.8345 -58.0334
v  -63.4831 22.8304 -57.3228
v  -63.4729 22.8397 -56.7394
v  -63.4126 22.8397 -56.4540
v  -63.3147 22.8397 -56.1910
v  -63.1830 22.8397 -55.9605
v  -63.0224 22.8397 -55.7713
v  -62.8395 22.8279 -55.6308
v  -62.6410 22.8181 -55.5470
v  -62.5377 22.8168 -55.5343
v  -62.4343 22.8155 -55.5217
v  -62.3309 22.8202 -55.5356
v  -62.2275 22.8249 -55.5495
v  -62.0285 22.8357 -55.6343
v  -61.8453 22.8397 -55.7713
v  -61.6848 22.8397 -55.9605
v  -61.5531 22.8397 -56.1910
v  -61.4552 22.8397 -56.4540
v  -61.3949 22.8397 -56.7394
v  -61.3847 22.8304 -57.3228
v  -61.3775 22.8345 -58.0334
v  -61.3745 22.8397 -58.7441
v  -61.3745 22.8359 -59.0821
v  -61.3745 22.8344 -59.1666
v  -61.3745 22.8298 -59.4200
v  -61.3745 22.8253 -59.6453
v  -61.4977 23.1444 -59.6453
v  -61.6848 23.4909 -59.3383
v  -61.6534 23.5099 -59.3447
v  -63.1830 23.5265 -59.1703
v  -63.2148 23.5451 -59.1757
v  -63.3701 23.1443 -59.6453
v  -63.4932 22.8253 -59.6453
v  -63.4932 22.8298 -59.4200
v  -63.4932 22.8313 -59.3355
v  -63.4932 22.8359 -59.0821
v  -63.4932 22.8397 -58.7441
v  -62.4429 23.6840 -59.6144
v  -62.4106 23.6798 -59.6144
v  -62.4753 23.6798 -59.6144
v  -62.4757 23.7113 -59.5522
v  -62.5816 23.7196 -59.5361
v  -62.5816 23.6764 -59.6754
v  -62.8574 23.6376 -59.5981
v  -62.8574 23.6808 -59.4588
v  -62.4102 23.7306 -59.4900
v  -62.4102 23.7113 -59.5522
v  -62.4429 23.7224 -59.5522
v  -62.4429 23.7416 -59.4900
v  -62.4757 23.7306 -59.4900
v  -62.0109 23.6812 -59.4589
v  -62.0109 23.6380 -59.5982
v  -62.3117 23.7199 -59.5362
v  -62.5687 23.6867 -59.5204
v  -63.1830 23.5087 -59.2543
v  -63.1959 23.5416 -59.2700
v  -62.3241 23.6868 -59.5204
v  -61.6848 23.5087 -59.2543
v  -61.6724 23.5240 -59.3541
v  -61.6724 23.5418 -59.2701
v  -62.3362 23.6626 -59.4857
v  -62.3362 23.6239 -59.6105
v  -62.3883 23.6411 -59.5522
v  -62.3883 23.6604 -59.4900
v  -62.5554 23.6625 -59.4857
v  -62.5554 23.7012 -59.3609
v  -62.4976 23.6796 -59.4278
v  -62.4976 23.6603 -59.4900
v  -62.3883 23.6648 -59.5522
v  -62.3883 23.6841 -59.4900
v  -62.4976 23.7033 -59.4278
v  -62.4976 23.6840 -59.4900
v  -62.3883 23.6849 -59.5522
v  -62.3883 23.7042 -59.4900
v  -62.4976 23.7234 -59.4278
v  -62.4976 23.7041 -59.4900
v  -62.3319 23.6330 -59.6404
v  -62.3313 23.6744 -59.5067
v  -62.5615 23.7157 -59.3731
v  -62.5609 23.6743 -59.5068
v  -63.5282 22.8448 -59.2526
v  -63.5283 22.8461 -59.1680
v  -63.4039 23.2203 -59.1714
v  -63.4038 23.2103 -59.2560
v  -63.2146 23.5275 -59.2602
v  -61.4639 23.2103 -59.2560
v  -61.4641 23.2003 -59.3406
v  -61.6532 23.5275 -59.2602
v  -61.3395 22.8448 -59.2526
v  -61.3396 22.8435 -59.3372
v  -61.3745 22.8328 -59.2510
v  -61.3745 22.8313 -59.3355
v  -63.4932 22.8328 -59.2510
v  -63.4932 22.8344 -59.1666
# 398 vertices

vn -0.8791 0.4388 0.1861
vn -0.8378 0.4093 0.3613
vn -0.3524 0.8559 0.3786
vn -0.3744 0.8976 0.2328
vn -0.1722 0.9105 0.3759
vn -0.1807 0.9551 0.2348
vn -0.0003 0.9718 0.2359
vn -0.0003 0.9260 0.3775
vn 0.1716 0.9106 0.3759
vn 0.1800 0.9552 0.2348
vn 0.3743 0.8976 0.2329
vn 0.3523 0.8559 0.3787
vn 0.8379 0.4091 0.3613
vn 0.8792 0.4386 0.1861
vn -0.8190 -0.4684 0.3315
vn -0.7307 -0.4901 0.4752
vn -0.7778 0.3248 0.5381
vn -0.8578 0.3583 0.3685
vn -0.1656 0.8648 0.4741
vn -0.2429 0.9123 0.3298
vn -0.7782 0.3482 0.5226
vn -0.3179 0.7722 0.5502
vn -0.1555 0.8222 0.5475
vn -0.0003 0.8359 0.5489
vn 0.1550 0.8223 0.5476
vn 0.3178 0.7722 0.5503
vn 0.7783 0.3481 0.5225
vn 0.2428 0.9123 0.3298
vn 0.1656 0.8648 0.4741
vn 0.7778 0.3248 0.5381
vn 0.8578 0.3583 0.3685
vn 0.7307 -0.4902 0.4752
vn 0.8190 -0.4684 0.3315
vn -0.6139 -0.5194 0.5944
vn -0.6676 0.2788 0.6904
vn -0.0636 0.8030 0.5926
vn -0.6948 0.2716 0.6659
vn -0.2713 0.6593 0.7012
vn -0.1328 0.7020 0.6997
vn -0.0002 0.7141 0.7001
vn 0.1323 0.7021 0.6997
vn 0.2713 0.6593 0.7012
vn 0.6949 0.2715 0.6659
vn 0.0636 0.8030 0.5926
vn 0.6676 0.2788 0.6904
vn 0.6140 -0.5195 0.5943
vn -0.5239 0.2161 0.8239
vn -0.0600 0.7549 0.6530
vn -0.5774 0.1465 0.8032
vn -0.2155 0.5200 0.8266
vn -0.1038 0.5487 0.8295
vn -0.0002 0.5551 0.8318
vn 0.1038 0.5505 0.8284
vn 0.2168 0.5226 0.8246
vn 0.5774 0.1457 0.8033
vn 0.0630 0.7554 0.6522
vn 0.5238 0.2158 0.8240
vn -0.2801 0.8246 0.4915
vn 0.4337 0.8462 0.3097
vn 0.4739 0.8294 -0.2958
vn -0.3502 0.8851 -0.3064
vn 0.4829 0.8000 -0.3561
vn -0.3486 0.8563 -0.3811
vn -0.0005 0.9650 0.2622
vn 0.2648 0.7513 0.6045
vn 0.5443 0.8050 -0.2359
vn -0.0004 0.9795 -0.2016
vn -0.4418 0.8399 0.3153
vn 0.2789 0.8273 0.4875
vn 0.3428 0.8876 -0.3076
vn -0.4868 0.8229 -0.2932
vn -0.2656 0.7510 0.6046
vn -0.5450 0.8046 -0.2358
vn 0.3409 0.8589 -0.3823
vn -0.4964 0.7931 -0.3530
vn -0.5116 0.8061 -0.2974
vn 0.3000 0.8958 -0.3279
vn 0.3849 0.3727 -0.8444
vn -0.3709 0.4602 -0.8066
vn -0.3075 0.8935 -0.3272
vn 0.4983 0.8135 -0.2999
vn 0.3576 0.4634 -0.8108
vn -0.3942 0.3674 -0.8424
vn -0.0177 0.9596 -0.2809
vn -0.6804 0.7240 -0.1132
vn -0.6306 0.6101 -0.4798
vn 0.0097 0.6229 -0.7822
vn 0.6513 0.7485 -0.1246
vn 0.6127 0.6146 -0.4969
vn -0.9021 0.4070 -0.1435
vn -0.6347 0.2110 -0.7434
vn 0.8924 0.4255 -0.1501
vn 0.6221 0.2205 -0.7512
vn -0.6622 0.7272 -0.1808
vn -0.4627 0.8864 0.0109
vn -0.8311 0.3527 0.4300
vn -0.9344 0.3462 -0.0837
vn -0.3389 0.9336 -0.1164
vn 0.6505 0.5712 -0.5006
vn 0.9296 0.3484 -0.1205
vn 0.9209 0.3561 -0.1585
vn -0.3426 -0.0873 -0.9354
vn -0.4431 0.1430 -0.8850
vn -0.8511 0.1579 -0.5008
vn -0.6314 0.7404 -0.2306
vn -0.9187 0.3773 -0.1163
vn -0.6336 0.7401 -0.2255
vn -0.9255 0.3623 -0.1104
vn 0.6260 0.7446 -0.2319
vn 0.4438 0.1490 -0.8836
vn 0.8491 0.1626 -0.5025
vn 0.9161 0.3831 -0.1181
vn 0.3359 -0.0860 -0.9380
vn -0.9171 0.3642 -0.1621
vn -0.9382 0.3272 -0.1132
vn -0.6903 0.5500 -0.4701
vn 0.3379 0.9343 -0.1136
vn 0.4616 0.8871 0.0052
vn 0.8295 0.3582 0.4286
vn 0.6568 0.7319 -0.1818
vn 0.9321 0.3520 -0.0851
vn 0.6363 0.7380 -0.2248
vn 0.9343 0.3409 -0.1039
vn -0.5436 0.8356 0.0799
vn -0.4736 0.8544 0.2140
vn -0.8802 0.4710 0.0584
vn -0.4502 0.8116 0.3723
vn -0.3647 0.7576 0.5414
vn -0.2427 0.6896 0.6823
vn -0.0523 0.7283 0.6833
vn -0.1231 0.7884 0.6027
vn -0.3182 0.1479 0.9364
vn -0.1282 0.7251 0.6766
vn -0.1107 0.1295 0.9854
vn -0.0489 0.7131 0.6993
vn -0.0395 0.1274 0.9911
vn -0.0101 0.7206 0.6933
vn -0.0007 0.1198 0.9928
vn 0.0295 0.7126 0.7010
vn 0.0379 0.1310 0.9907
vn 0.1249 0.7175 0.6853
vn 0.1093 0.1410 0.9840
vn 0.1339 0.7901 0.5982
vn 0.3195 0.1412 0.9370
vn 0.0533 0.7309 0.6804
vn 0.2427 0.6897 0.6823
vn 0.3646 0.7576 0.5414
vn 0.4501 0.8117 0.3722
vn 0.4735 0.8544 0.2140
vn 0.5435 0.8356 0.0799
vn 0.8803 0.4708 0.0584
vn 0.5393 0.8411 -0.0421
vn 0.8839 0.4673 -0.0181
vn 0.7205 0.4196 -0.5522
vn 0.3219 0.7337 -0.5984
vn -0.1834 0.6375 -0.7483
vn -0.0475 0.4093 -0.9112
vn -0.0073 0.8594 -0.5113
vn 0.1303 0.6459 -0.7522
vn -0.3311 0.7317 -0.5958
vn -0.7204 0.4197 -0.5522
vn -0.5393 0.8410 -0.0421
vn -0.8838 0.4675 -0.0181
vn 0.3509 0.1188 -0.9289
vn -0.4350 0.1318 -0.8907
vn 0.4171 0.1336 -0.8990
vn -0.3589 0.1179 -0.9259
vn -0.4534 0.1258 -0.8824
vn 0.0250 0.1087 -0.9938
vn 0.4621 0.1217 -0.8784
vn 0.3110 -0.0124 -0.9503
vn -0.5081 -0.0113 -0.8612
vn 0.4864 -0.0114 -0.8736
vn -0.3184 -0.0124 -0.9479
vn -0.2086 -0.0128 -0.9779
vn 0.0231 -0.0131 -0.9996
vn 0.2491 -0.0127 -0.9684
vn 0.5894 0.7630 -0.2654
vn -0.0064 0.9440 -0.3298
vn -0.0020 0.8884 0.4591
vn -0.5112 0.8547 -0.0905
vn -0.6077 0.7505 -0.2597
vn 0.5098 0.8555 -0.0904
vn -0.5934 0.7354 -0.3273
vn 0.7014 0.6512 -0.2898
vn -0.5884 0.7982 -0.1287
vn -0.0050 0.9389 -0.3440
vn -0.0010 0.6173 -0.7867
vn 0.2957 0.7288 -0.6177
vn 0.5657 0.8142 -0.1306
vn -0.2972 0.7285 -0.6172
vn 0.6033 0.7286 -0.3243
vn -0.7023 0.6504 -0.2895
vn -0.0000 0.0000 1.0000
vn -0.8076 0.0000 0.5897
vn 0.8076 0.0000 0.5897
vn 1.0000 0.0000 -0.0000
vn 0.0000 -0.0000 -1.0000
vn 0.8076 -0.0000 -0.5897
vn -0.8076 -0.0000 -0.5897
vn -1.0000 0.0000 -0.0000
vn -0.0002 0.4831 0.8756
vn -0.7815 0.4779 0.4011
vn 0.7813 0.4783 0.4010
vn 0.9332 0.3283 -0.1461
vn -0.0001 0.2540 -0.9672
vn 0.7539 0.3089 -0.5799
vn -0.7540 0.3086 -0.5798
vn -0.9333 0.3280 -0.1460
vn -0.8707 -0.4914 0.0212
vn -0.9330 0.3586 0.0318
vn -0.9325 0.3611 -0.0004
vn -0.8742 -0.4856 0.0040
vn -0.3082 0.9476 0.0837
vn -0.3100 0.9496 -0.0473
vn 0.3081 0.9477 0.0837
vn 0.9330 0.3586 0.0318
vn 0.9325 0.3611 -0.0004
vn 0.3099 0.9496 -0.0473
vn 0.8707 -0.4914 0.0212
vn 0.8741 -0.4857 0.0040
vn -0.8832 -0.4464 0.1436
vn -0.9108 0.3783 0.1653
vn -0.3081 0.9291 0.2046
vn 0.3081 0.9291 0.2046
vn 0.9108 0.3783 0.1653
vn 0.8832 -0.4465 0.1436
vn -0.4903 -0.5464 0.6790
vn 0.4775 -0.5517 0.6838
vn -0.9219 0.3864 -0.0294
vn -0.8857 -0.4642 0.0024
vn -0.2841 0.9488 -0.1383
vn 0.9219 0.3864 -0.0294
vn 0.2840 0.9488 -0.1383
vn 0.8857 -0.4643 0.0024
vn -0.0370 0.6859 -0.7268
vn 0.7523 0.5163 -0.4092
vn -0.7877 0.4830 -0.3824
vn -0.9378 0.3288 -0.1119
vn -0.9300 0.3358 -0.1495
vn -0.9349 0.3266 -0.1391
vn 0.9081 0.3826 -0.1703
vn 0.9205 0.3591 -0.1539
vn 0.9250 0.3594 -0.1232
vn -0.3909 0.9162 0.0881
vn -0.4155 0.9070 -0.0686
vn -0.1891 0.9769 0.0991
vn -0.2587 0.9602 -0.1049
vn 0.1888 0.9773 0.0962
vn -0.0005 0.9936 0.1129
vn 0.3908 0.9162 0.0881
vn 0.4103 0.9093 -0.0690
vn -0.3465 -0.5831 0.7348
vn -0.3427 0.1786 0.9223
vn -0.1207 0.7868 0.6053
vn 0.1301 0.7870 0.6031
vn 0.3427 0.1759 0.9228
vn 0.3361 -0.5826 0.7400
vn -0.0492 0.8592 0.5093
vn -0.0801 0.1737 0.9815
vn 0.0008 0.1823 0.9832
vn -0.0111 0.8607 0.5089
vn 0.1039 0.8420 0.5294
vn 0.0263 0.8583 0.5124
vn 0.0819 0.1723 0.9816
vn 0.1691 0.1714 0.9706
vn -0.0742 -0.6335 0.7702
vn 0.0122 -0.6201 0.7844
vn 0.1000 -0.6336 0.7672
vn 0.1843 -0.6073 0.7728
vn -0.1682 0.1738 0.9703
vn -0.1703 -0.6089 0.7747
vn -0.1079 0.8403 0.5312
vn -0.9128 0.4044 -0.0572
vn -0.8926 -0.4508 0.0070
vn -0.2497 0.9422 -0.2233
vn 0.9128 0.4044 -0.0572
vn 0.2496 0.9423 -0.2233
vn 0.8925 -0.4509 0.0070
vn -0.8969 0.4350 -0.0797
vn -0.9040 -0.4274 0.0091
vn -0.9007 -0.4343 0.0085
vn -0.9016 0.4261 -0.0743
vn -0.2109 0.9347 -0.2861
vn -0.2224 0.9339 -0.2798
vn 0.9093 0.4099 -0.0715
vn 0.2429 0.9292 -0.2784
vn 0.8947 -0.4466 0.0088
vn -0.6045 0.2971 -0.7391
vn -0.7342 -0.3473 -0.5834
vn -0.1340 0.6744 -0.7261
vn 0.8969 0.4350 -0.0797
vn 0.6046 0.2971 -0.7391
vn 0.1340 0.6744 -0.7261
vn 0.2108 0.9347 -0.2861
vn 0.9040 -0.4275 0.0091
vn 0.7341 -0.3474 -0.5834
vn 0.0124 0.9959 -0.0897
vn 0.2648 0.9577 -0.1125
vn -0.0352 0.7595 -0.6496
vn -0.5375 0.7802 -0.3199
vn 0.5256 0.7811 -0.3371
vn -0.9367 0.3350 -0.1021
vn -0.2769 -0.9609 -0.0062
vn -0.2760 -0.9611 0.0125
vn -0.2785 -0.9588 0.0561
vn -0.2528 -0.9618 0.1049
vn -0.2069 -0.9685 0.1385
vn -0.1517 -0.9767 0.1520
vn -0.1197 -0.9845 0.1284
vn -0.0988 -0.9896 0.1043
vn -0.0492 -0.9937 0.1004
vn -0.0205 -0.9950 0.0981
vn 0.0168 -0.9948 0.1005
vn 0.0536 -0.9941 0.0941
vn 0.0676 -0.9933 0.0939
vn 0.0820 -0.9908 0.1077
vn 0.1029 -0.9850 0.1386
vn 0.1517 -0.9767 0.1520
vn 0.2069 -0.9685 0.1384
vn 0.2528 -0.9618 0.1048
vn 0.2785 -0.9588 0.0561
vn 0.2759 -0.9611 0.0125
vn 0.2768 -0.9609 -0.0062
vn 0.2918 -0.9565 0.0034
vn 0.3121 -0.9498 0.0200
vn 0.3182 -0.9477 0.0247
vn 0.3360 -0.9415 0.0256
vn 0.3282 -0.4280 -0.8421
vn 0.2103 0.0946 -0.9730
vn 0.6282 0.7442 -0.2268
vn 0.2223 0.9340 -0.2798
vn -0.6416 0.7337 -0.2236
vn -0.2430 0.9292 -0.2784
vn -0.2103 0.0946 -0.9730
vn -0.3282 -0.4279 -0.8421
vn -0.3361 -0.9415 0.0256
vn -0.3301 -0.9436 0.0246
vn -0.3122 -0.9498 0.0200
vn -0.2918 -0.9565 0.0034
vn -0.0004 0.6631 -0.7485
vn 0.1905 0.4797 -0.8565
vn -0.1911 0.4795 -0.8565
vn -0.5146 0.7430 -0.4278
vn -0.3324 0.8616 -0.3835
vn -0.3406 0.8590 -0.3823
vn 0.5370 0.7707 -0.3430
vn 0.5140 0.7434 -0.4280
vn -0.0004 0.8495 -0.5276
vn -0.0004 0.9136 -0.4066
vn -0.5376 0.7703 -0.3429
vn 0.3328 0.8615 -0.3834
vn 0.3246 0.8641 -0.3846
vn 0.9145 0.3696 -0.1645
vn -0.6376 0.7369 -0.2245
vn -0.9313 0.3485 -0.1062
vn -0.9236 0.3503 -0.1559
vn 0.6323 0.7411 -0.2258
vn 0.9230 0.3681 -0.1121
vn 0.9289 0.3543 -0.1080
vn -0.6069 0.7261 -0.3232
vn -0.6205 0.7164 -0.3189
vn 0.5903 0.7374 -0.3282
vn 0.5774 0.7459 -0.3320
vn -0.9337 0.3293 -0.1403
vn -0.9342 0.3283 -0.1399
vn 0.9217 0.3565 -0.1527
vn 0.9210 0.3581 -0.1534
vn -0.8977 -0.4405 0.0087
vn -0.8947 -0.4466 0.0088
vn -0.9093 0.4099 -0.0715
vn -0.9056 0.4179 -0.0729
vn -0.2328 0.9316 -0.2791
vn 0.9056 0.4179 -0.0729
vn 0.9016 0.4261 -0.0743
vn 0.2327 0.9316 -0.2791
vn 0.8977 -0.4406 0.0087
vn 0.9007 -0.4344 0.0085
vn 0.3241 -0.9457 0.0247
vn 0.3301 -0.9436 0.0246
vn -0.3242 -0.9457 0.0247
vn -0.3182 -0.9477 0.0247
# 382 vertex normals

vt 0.7615 0.0084 0.0000
vt 0.7786 0.0127 0.0000
vt 0.7722 0.0413 0.0000
vt 0.7563 0.0392 0.0000
vt 0.7712 0.0561 0.0000
vt 0.7554 0.0550 0.0000
vt 0.7547 0.0709 0.0000
vt 0.7702 0.0709 0.0000
vt 0.7713 0.0856 0.0000
vt 0.7555 0.0868 0.0000
vt 0.7565 0.1027 0.0000
vt 0.7724 0.1004 0.0000
vt 0.7789 0.1289 0.0000
vt 0.7618 0.1331 0.0000
vt 0.4062 0.3727 0.0000
vt 0.4230 0.3754 0.0000
vt 0.4224 0.4030 0.0000
vt 0.4058 0.4033 0.0000
vt 0.4239 0.4290 0.0000
vt 0.4072 0.4322 0.0000
vt 0.7952 0.0188 0.0000
vt 0.7880 0.0441 0.0000
vt 0.7870 0.0575 0.0000
vt 0.7858 0.0708 0.0000
vt 0.7871 0.0841 0.0000
vt 0.7882 0.0974 0.0000
vt 0.7956 0.1228 0.0000
vt 0.1940 0.3791 0.0000
vt 0.2107 0.3824 0.0000
vt 0.2091 0.4084 0.0000
vt 0.1925 0.4079 0.0000
vt 0.2094 0.4360 0.0000
vt 0.1926 0.4385 0.0000
vt 0.4395 0.3789 0.0000
vt 0.4390 0.4025 0.0000
vt 0.4404 0.4248 0.0000
vt 0.8111 0.0266 0.0000
vt 0.8037 0.0478 0.0000
vt 0.8027 0.0593 0.0000
vt 0.8014 0.0707 0.0000
vt 0.8028 0.0821 0.0000
vt 0.8039 0.0936 0.0000
vt 0.8114 0.1150 0.0000
vt 0.2271 0.3866 0.0000
vt 0.2256 0.4088 0.0000
vt 0.2260 0.4325 0.0000
vt 0.1897 0.4637 0.0000
vt 0.2047 0.4568 0.0000
vt 0.2131 0.4721 0.0000
vt 0.2003 0.4832 0.0000
vt 0.8260 0.0358 0.0000
vt 0.8193 0.0523 0.0000
vt 0.8184 0.0615 0.0000
vt 0.8172 0.0707 0.0000
vt 0.8185 0.0798 0.0000
vt 0.8194 0.0890 0.0000
vt 0.8263 0.1057 0.0000
vt 0.2968 0.4845 0.0000
vt 0.2843 0.4730 0.0000
vt 0.2931 0.4580 0.0000
vt 0.3079 0.4652 0.0000
vt 0.1691 0.4751 0.0000
vt 0.1644 0.4970 0.0000
vt 0.1386 0.4954 0.0000
vt 0.1434 0.4737 0.0000
vt 0.1303 0.4945 0.0000
vt 0.1352 0.4728 0.0000
vt 0.8274 0.0055 0.0000
vt 0.8273 0.0080 0.0000
vt 0.8239 0.0082 0.0000
vt 0.8241 0.0055 0.0000
vt 0.0881 0.4403 0.0000
vt 0.0928 0.4641 0.0000
vt 0.0671 0.4654 0.0000
vt 0.0623 0.4418 0.0000
vt 0.8271 0.0030 0.0000
vt 0.8239 0.0027 0.0000
vt 0.0589 0.4663 0.0000
vt 0.0540 0.4426 0.0000
vt 0.0291 0.4452 0.0000
vt 0.0340 0.4689 0.0000
vt 0.0207 0.4698 0.0000
vt 0.0158 0.4462 0.0000
vt 0.1103 0.4700 0.0000
vt 0.1055 0.4918 0.0000
vt 0.0922 0.4908 0.0000
vt 0.0970 0.4691 0.0000
vt 0.7022 0.1566 0.0000
vt 0.7050 0.1647 0.0000
vt 0.6917 0.1647 0.0000
vt 0.6888 0.1566 0.0000
vt 0.7050 0.1465 0.0000
vt 0.6917 0.1466 0.0000
vt 0.8796 0.1247 0.0000
vt 0.8782 0.1255 0.0000
vt 0.8656 0.1212 0.0000
vt 0.8670 0.1204 0.0000
vt 0.4163 0.4416 0.0000
vt 0.4177 0.4424 0.0000
vt 0.4051 0.4467 0.0000
vt 0.4037 0.4459 0.0000
vt 0.9248 0.1335 0.0000
vt 0.9435 0.1369 0.0000
vt 0.9426 0.1397 0.0000
vt 0.9239 0.1363 0.0000
vt 0.4422 0.0863 0.0000
vt 0.4696 0.1032 0.0000
vt 0.4686 0.1059 0.0000
vt 0.4412 0.0890 0.0000
vt 0.4914 0.1075 0.0000
vt 0.4904 0.1102 0.0000
vt 0.4714 0.4208 0.0000
vt 0.4466 0.4277 0.0000
vt 0.4456 0.4249 0.0000
vt 0.4705 0.4181 0.0000
vt 0.4390 0.4311 0.0000
vt 0.4380 0.4283 0.0000
vt 0.4027 0.4432 0.0000
vt 0.4153 0.4388 0.0000
vt 0.9966 0.2968 0.0000
vt 0.9745 0.3004 0.0000
vt 0.9739 0.2976 0.0000
vt 0.9957 0.2940 0.0000
vt 0.9427 0.3065 0.0000
vt 0.9424 0.3036 0.0000
vt 0.8939 0.1242 0.0000
vt 0.9064 0.1281 0.0000
vt 0.9055 0.1308 0.0000
vt 0.8930 0.1270 0.0000
vt 0.9110 0.1294 0.0000
vt 0.9101 0.1322 0.0000
vt 0.4546 0.1410 0.0000
vt 0.4421 0.1449 0.0000
vt 0.4412 0.1421 0.0000
vt 0.4537 0.1382 0.0000
vt 0.6833 0.3115 0.0000
vt 0.6517 0.3052 0.0000
vt 0.6523 0.3023 0.0000
vt 0.6837 0.3086 0.0000
vt 0.6277 0.3011 0.0000
vt 0.6286 0.2984 0.0000
vt 0.8772 0.1283 0.0000
vt 0.8646 0.1239 0.0000
vt 0.8858 0.1290 0.0000
vt 0.8848 0.1318 0.0000
vt 0.9085 0.1394 0.0000
vt 0.9333 0.1462 0.0000
vt 0.9324 0.1489 0.0000
vt 0.9076 0.1422 0.0000
vt 0.7863 0.1283 0.0000
vt 0.8100 0.1237 0.0000
vt 0.8110 0.1264 0.0000
vt 0.7873 0.1310 0.0000
vt 0.8372 0.1065 0.0000
vt 0.8382 0.1092 0.0000
vt 0.4917 0.1321 0.0000
vt 0.4730 0.1355 0.0000
vt 0.4721 0.1328 0.0000
vt 0.4908 0.1293 0.0000
vt 0.4684 0.1369 0.0000
vt 0.4675 0.1341 0.0000
vt 0.7507 0.1424 0.0000
vt 0.7826 0.1370 0.0000
vt 0.7833 0.1398 0.0000
vt 0.7514 0.1453 0.0000
vt 0.7985 0.1335 0.0000
vt 0.7992 0.1363 0.0000
vt 0.8138 0.1277 0.0000
vt 0.8145 0.1306 0.0000
vt 0.8281 0.1200 0.0000
vt 0.8288 0.1228 0.0000
vt 0.8413 0.1103 0.0000
vt 0.8420 0.1131 0.0000
vt 0.8288 0.0348 0.0000
vt 0.8347 0.0442 0.0000
vt 0.8319 0.0450 0.0000
vt 0.8364 0.0574 0.0000
vt 0.8335 0.0579 0.0000
vt 0.8367 0.0640 0.0000
vt 0.8338 0.0643 0.0000
vt 0.8368 0.0706 0.0000
vt 0.8339 0.0706 0.0000
vt 0.8366 0.0771 0.0000
vt 0.8337 0.0769 0.0000
vt 0.8361 0.0837 0.0000
vt 0.8333 0.0832 0.0000
vt 0.8349 0.0972 0.0000
vt 0.8322 0.0963 0.0000
vt 0.8291 0.1066 0.0000
vt 0.9754 0.1959 0.0000
vt 0.9624 0.1862 0.0000
vt 0.9630 0.1834 0.0000
vt 0.9761 0.1931 0.0000
vt 0.9481 0.1783 0.0000
vt 0.9488 0.1755 0.0000
vt 0.9328 0.1725 0.0000
vt 0.9335 0.1697 0.0000
vt 0.9169 0.1689 0.0000
vt 0.9176 0.1661 0.0000
vt 0.8851 0.1633 0.0000
vt 0.8858 0.1604 0.0000
vt 0.8462 0.1626 0.0000
vt 0.8469 0.1598 0.0000
vt 0.8074 0.1666 0.0000
vt 0.8081 0.1638 0.0000
vt 0.4916 0.1279 0.0000
vt 0.4653 0.1095 0.0000
vt 0.4653 0.1066 0.0000
vt 0.4917 0.1250 0.0000
vt 0.4412 0.1071 0.0000
vt 0.4413 0.1042 0.0000
vt 0.7942 0.0000 0.0000
vt 0.8069 0.0036 0.0000
vt 0.8073 0.0065 0.0000
vt 0.7945 0.0029 0.0000
vt 0.9904 0.1187 0.0000
vt 0.9782 0.1266 0.0000
vt 0.9776 0.1237 0.0000
vt 0.9898 0.1158 0.0000
vt 0.9569 0.1331 0.0000
vt 0.9563 0.1302 0.0000
vt 0.9344 0.1560 0.0000
vt 0.9338 0.1532 0.0000
vt 0.6730 0.1386 0.0000
vt 0.7119 0.1429 0.0000
vt 0.7125 0.1457 0.0000
vt 0.6737 0.1414 0.0000
vt 0.6485 0.3322 0.0000
vt 0.6247 0.3283 0.0000
vt 0.9992 0.3239 0.0000
vt 0.9774 0.3274 0.0000
vt 0.9861 0.0028 0.0000
vt 0.9943 0.0000 0.0000
vt 0.9944 0.0274 0.0000
vt 0.9862 0.0299 0.0000
vt 0.9760 0.0001 0.0000
vt 0.9761 0.0274 0.0000
vt 0.8566 0.0955 0.0000
vt 0.8580 0.0947 0.0000
vt 0.3959 0.4724 0.0000
vt 0.3945 0.4716 0.0000
vt 0.6483 0.3573 0.0000
vt 0.6243 0.3536 0.0000
vt 0.9994 0.3493 0.0000
vt 0.9772 0.3526 0.0000
vt 0.9945 0.0528 0.0000
vt 0.9861 0.0550 0.0000
vt 0.9759 0.0527 0.0000
vt 0.8548 0.0704 0.0000
vt 0.8562 0.0696 0.0000
vt 0.3939 0.4975 0.0000
vt 0.3925 0.4967 0.0000
vt 0.7369 0.1470 0.0000
vt 0.7358 0.1565 0.0000
vt 0.7307 0.1558 0.0000
vt 0.7292 0.1516 0.0000
vt 0.7370 0.1642 0.0000
vt 0.7292 0.1601 0.0000
vt 0.7295 0.1642 0.0000
vt 0.7255 0.1601 0.0000
vt 0.7071 0.1643 0.0000
vt 0.7059 0.1565 0.0000
vt 0.7128 0.1559 0.0000
vt 0.7143 0.1602 0.0000
vt 0.7071 0.1471 0.0000
vt 0.7143 0.1516 0.0000
vt 0.7145 0.1471 0.0000
vt 0.7180 0.1516 0.0000
vt 0.8693 0.0385 0.0000
vt 0.8738 0.0391 0.0000
vt 0.8738 0.0409 0.0000
vt 0.8693 0.0403 0.0000
vt 0.8783 0.0385 0.0000
vt 0.8783 0.0404 0.0000
vt 0.8697 0.0363 0.0000
vt 0.8663 0.0378 0.0000
vt 0.8663 0.0360 0.0000
vt 0.8697 0.0345 0.0000
vt 0.8336 0.0168 0.0000
vt 0.8290 0.0176 0.0000
vt 0.8290 0.0157 0.0000
vt 0.8335 0.0149 0.0000
vt 0.8245 0.0168 0.0000
vt 0.8245 0.0150 0.0000
vt 0.8403 0.0317 0.0000
vt 0.8437 0.0333 0.0000
vt 0.8437 0.0351 0.0000
vt 0.8403 0.0336 0.0000
vt 0.8738 0.0425 0.0000
vt 0.8693 0.0419 0.0000
vt 0.8783 0.0419 0.0000
vt 0.8663 0.0344 0.0000
vt 0.8697 0.0329 0.0000
vt 0.8290 0.0142 0.0000
vt 0.8334 0.0133 0.0000
vt 0.8246 0.0134 0.0000
vt 0.8437 0.0367 0.0000
vt 0.8403 0.0351 0.0000
vt 0.3567 0.3704 0.0000
vt 0.3570 0.4061 0.0000
vt 0.3182 0.4068 0.0000
vt 0.3177 0.3711 0.0000
vt 0.3577 0.4394 0.0000
vt 0.3186 0.4401 0.0000
vt 0.1447 0.3714 0.0000
vt 0.1437 0.4047 0.0000
vt 0.1048 0.4037 0.0000
vt 0.1056 0.3704 0.0000
vt 0.1431 0.4404 0.0000
vt 0.1041 0.4394 0.0000
vt 0.3892 0.3711 0.0000
vt 0.3892 0.4037 0.0000
vt 0.3902 0.4342 0.0000
vt 0.1771 0.3768 0.0000
vt 0.1758 0.4075 0.0000
vt 0.1756 0.4399 0.0000
vt 0.1818 0.4415 0.0000
vt 0.1985 0.4395 0.0000
vt 0.2997 0.4408 0.0000
vt 0.3164 0.4433 0.0000
vt 0.2792 0.4053 0.0000
vt 0.2788 0.3721 0.0000
vt 0.2795 0.4366 0.0000
vt 0.0659 0.4049 0.0000
vt 0.0665 0.3736 0.0000
vt 0.0652 0.4381 0.0000
vt 0.9903 0.1210 0.0000
vt 0.9785 0.1285 0.0000
vt 0.9998 0.1280 0.0000
vt 0.9992 0.1299 0.0000
vt 0.9087 0.1381 0.0000
vt 0.9322 0.1446 0.0000
vt 0.9009 0.1360 0.0000
vt 0.9014 0.1348 0.0000
vt 0.4238 0.4380 0.0000
vt 0.4250 0.4390 0.0000
vt 0.4703 0.4225 0.0000
vt 0.4468 0.4290 0.0000
vt 0.6860 0.0056 0.0000
vt 0.7270 0.0067 0.0000
vt 0.7189 0.0389 0.0000
vt 0.6839 0.0383 0.0000
vt 0.7164 0.0550 0.0000
vt 0.6810 0.0583 0.0000
vt 0.7165 0.0871 0.0000
vt 0.7140 0.0710 0.0000
vt 0.7191 0.1032 0.0000
vt 0.7274 0.1353 0.0000
vt 0.6864 0.1367 0.0000
vt 0.6842 0.1040 0.0000
vt 0.2154 0.4372 0.0000
vt 0.2202 0.4529 0.0000
vt 0.2234 0.4682 0.0000
vt 0.2740 0.4690 0.0000
vt 0.2777 0.4540 0.0000
vt 0.2829 0.4387 0.0000
vt 0.2426 0.4692 0.0000
vt 0.2418 0.4522 0.0000
vt 0.2489 0.4524 0.0000
vt 0.2487 0.4695 0.0000
vt 0.2610 0.4696 0.0000
vt 0.2549 0.4695 0.0000
vt 0.2561 0.4525 0.0000
vt 0.2634 0.4527 0.0000
vt 0.2407 0.4355 0.0000
vt 0.2491 0.4355 0.0000
vt 0.2576 0.4360 0.0000
vt 0.2661 0.4367 0.0000
vt 0.2345 0.4520 0.0000
vt 0.2322 0.4357 0.0000
vt 0.2364 0.4689 0.0000
vt 0.2606 0.4037 0.0000
vt 0.2602 0.3721 0.0000
vt 0.2606 0.4338 0.0000
vt 0.0472 0.4063 0.0000
vt 0.0475 0.3763 0.0000
vt 0.0467 0.4379 0.0000
vt 0.2420 0.4011 0.0000
vt 0.2417 0.3721 0.0000
vt 0.2464 0.3721 0.0000
vt 0.2467 0.4018 0.0000
vt 0.2418 0.4291 0.0000
vt 0.2465 0.4303 0.0000
vt 0.0426 0.4069 0.0000
vt 0.0428 0.3774 0.0000
vt 0.0420 0.4379 0.0000
vt 0.2297 0.3991 0.0000
vt 0.2294 0.3720 0.0000
vt 0.2292 0.4258 0.0000
vt 0.0287 0.4088 0.0000
vt 0.0163 0.4106 0.0000
vt 0.0160 0.3839 0.0000
vt 0.0287 0.3808 0.0000
vt 0.0281 0.4378 0.0000
vt 0.0158 0.4378 0.0000
vt 0.6440 0.0600 0.0000
vt 0.6485 0.0370 0.0000
vt 0.6830 0.0712 0.0000
vt 0.6811 0.0832 0.0000
vt 0.6441 0.0805 0.0000
vt 0.6538 0.0713 0.0000
vt 0.7690 0.1564 0.0000
vt 0.7600 0.1642 0.0000
vt 0.6487 0.1055 0.0000
vt 0.7600 0.1469 0.0000
vt 0.9901 0.1235 0.0000
vt 0.9790 0.1306 0.0000
vt 0.9984 0.1319 0.0000
vt 0.9089 0.1366 0.0000
vt 0.9311 0.1427 0.0000
vt 0.9021 0.1336 0.0000
vt 0.4266 0.4397 0.0000
vt 0.4199 0.4429 0.0000
vt 0.4692 0.4244 0.0000
vt 0.4470 0.4305 0.0000
vt 0.1403 0.4428 0.0000
vt 0.1451 0.4431 0.0000
vt 0.1642 0.4433 0.0000
vt 0.6461 0.0044 0.0000
vt 0.6465 0.1382 0.0000
vt 0.0877 0.4960 0.0000
vt 0.0686 0.4960 0.0000
vt 0.0638 0.4963 0.0000
vt 0.1259 0.4420 0.0000
vt 0.1128 0.4410 0.0000
vt 0.0494 0.4971 0.0000
vt 0.0363 0.4979 0.0000
vt 0.7129 0.1693 0.0000
vt 0.7517 0.1684 0.0000
vt 0.7518 0.1713 0.0000
vt 0.7129 0.1722 0.0000
vt 0.7836 0.1675 0.0000
vt 0.7841 0.1704 0.0000
vt 0.7992 0.1628 0.0000
vt 0.8003 0.1655 0.0000
vt 0.8136 0.1551 0.0000
vt 0.8152 0.1576 0.0000
vt 0.8263 0.1449 0.0000
vt 0.8283 0.1470 0.0000
vt 0.8367 0.1323 0.0000
vt 0.8391 0.1340 0.0000
vt 0.8443 0.1179 0.0000
vt 0.8470 0.1190 0.0000
vt 0.8489 0.1023 0.0000
vt 0.8518 0.1029 0.0000
vt 0.8496 0.0942 0.0000
vt 0.8525 0.0944 0.0000
vt 0.8503 0.0861 0.0000
vt 0.8532 0.0861 0.0000
vt 0.8495 0.0780 0.0000
vt 0.8524 0.0777 0.0000
vt 0.8487 0.0698 0.0000
vt 0.8516 0.0693 0.0000
vt 0.8441 0.0542 0.0000
vt 0.8468 0.0531 0.0000
vt 0.8365 0.0399 0.0000
vt 0.8389 0.0382 0.0000
vt 0.8260 0.0274 0.0000
vt 0.8280 0.0253 0.0000
vt 0.8133 0.0172 0.0000
vt 0.8149 0.0147 0.0000
vt 0.7989 0.0096 0.0000
vt 0.8000 0.0069 0.0000
vt 0.7833 0.0049 0.0000
vt 0.7837 0.0020 0.0000
vt 0.7514 0.0042 0.0000
vt 0.7514 0.0013 0.0000
vt 0.7125 0.0034 0.0000
vt 0.7125 0.0005 0.0000
vt 0.6737 0.0029 0.0000
vt 0.6736 0.0000 0.0000
vt 0.6552 0.0030 0.0000
vt 0.6551 0.0001 0.0000
vt 0.6506 0.0030 0.0000
vt 0.6505 0.0001 0.0000
vt 0.6367 0.0031 0.0000
vt 0.6244 0.0032 0.0000
vt 0.6243 0.0003 0.0000
vt 0.6366 0.0002 0.0000
vt 0.7047 0.3600 0.0000
vt 0.6963 0.3345 0.0000
vt 0.6990 0.3334 0.0000
vt 0.7075 0.3592 0.0000
vt 0.6859 0.3101 0.0000
vt 0.7501 0.3083 0.0000
vt 0.7631 0.3096 0.0000
vt 0.7629 0.3125 0.0000
vt 0.7499 0.3112 0.0000
vt 0.7679 0.3100 0.0000
vt 0.7677 0.3129 0.0000
vt 0.7823 0.3117 0.0000
vt 0.8012 0.3130 0.0000
vt 0.8011 0.3159 0.0000
vt 0.7821 0.3146 0.0000
vt 0.8403 0.3144 0.0000
vt 0.8403 0.3174 0.0000
vt 0.8792 0.3136 0.0000
vt 0.8793 0.3165 0.0000
vt 0.9114 0.3104 0.0000
vt 0.9119 0.3133 0.0000
vt 0.9270 0.3058 0.0000
vt 0.9281 0.3085 0.0000
vt 0.9415 0.2983 0.0000
vt 0.9430 0.3008 0.0000
vt 0.9542 0.2882 0.0000
vt 0.9562 0.2903 0.0000
vt 0.9647 0.2757 0.0000
vt 0.9671 0.2773 0.0000
vt 0.9693 0.2664 0.0000
vt 0.9720 0.2675 0.0000
vt 0.9725 0.2545 0.0000
vt 0.9754 0.2550 0.0000
vt 0.9729 0.2486 0.0000
vt 0.9758 0.2488 0.0000
vt 0.9731 0.2427 0.0000
vt 0.9760 0.2427 0.0000
vt 0.9728 0.2368 0.0000
vt 0.9757 0.2366 0.0000
vt 0.9723 0.2309 0.0000
vt 0.9752 0.2304 0.0000
vt 0.9691 0.2191 0.0000
vt 0.9718 0.2180 0.0000
vt 0.9644 0.2097 0.0000
vt 0.9668 0.2081 0.0000
vt 0.9539 0.1973 0.0000
vt 0.9559 0.1952 0.0000
vt 0.9411 0.1873 0.0000
vt 0.9426 0.1848 0.0000
vt 0.9265 0.1799 0.0000
vt 0.9276 0.1771 0.0000
vt 0.9109 0.1754 0.0000
vt 0.9114 0.1725 0.0000
vt 0.8787 0.1724 0.0000
vt 0.8788 0.1695 0.0000
vt 0.8398 0.1718 0.0000
vt 0.8398 0.1689 0.0000
vt 0.8007 0.1735 0.0000
vt 0.8006 0.1706 0.0000
vt 0.7817 0.1750 0.0000
vt 0.7815 0.1721 0.0000
vt 0.7770 0.1756 0.0000
vt 0.7768 0.1727 0.0000
vt 0.7626 0.1772 0.0000
vt 0.7496 0.1786 0.0000
vt 0.7494 0.1757 0.0000
vt 0.7624 0.1743 0.0000
vt 0.9296 0.3294 0.0000
vt 0.9269 0.3283 0.0000
vt 0.9402 0.3051 0.0000
vt 0.9207 0.3548 0.0000
vt 0.9180 0.3539 0.0000
vt 0.6247 0.1698 0.0000
vt 0.6371 0.1699 0.0000
vt 0.6370 0.1728 0.0000
vt 0.6246 0.1727 0.0000
vt 0.6417 0.1699 0.0000
vt 0.6416 0.1728 0.0000
vt 0.6555 0.1699 0.0000
vt 0.6740 0.1699 0.0000
vt 0.6740 0.1728 0.0000
vt 0.6555 0.1728 0.0000
vt 0.8276 0.0010 0.0000
vt 0.8291 0.0055 0.0000
vt 0.8275 0.0100 0.0000
vt 0.8237 0.0109 0.0000
vt 0.8290 0.0118 0.0000
vt 0.8316 0.0121 0.0000
vt 0.8264 0.0122 0.0000
vt 0.8113 0.0009 0.0000
vt 0.8150 0.0004 0.0000
vt 0.8163 0.0028 0.0000
vt 0.8120 0.0029 0.0000
vt 0.1220 0.4936 0.0000
vt 0.1137 0.4927 0.0000
vt 0.1186 0.4709 0.0000
vt 0.1269 0.4719 0.0000
vt 0.8201 0.0082 0.0000
vt 0.8163 0.0081 0.0000
vt 0.8167 0.0055 0.0000
vt 0.8204 0.0055 0.0000
vt 0.8201 0.0027 0.0000
vt 0.0506 0.4672 0.0000
vt 0.0423 0.4680 0.0000
vt 0.0374 0.4444 0.0000
vt 0.0457 0.4435 0.0000
vt 0.4314 0.4345 0.0000
vt 0.4228 0.4353 0.0000
vt 0.4304 0.4318 0.0000
vt 0.9156 0.1308 0.0000
vt 0.9202 0.1321 0.0000
vt 0.9193 0.1349 0.0000
vt 0.9147 0.1336 0.0000
vt 0.8933 0.1325 0.0000
vt 0.9000 0.1387 0.0000
vt 0.8924 0.1353 0.0000
vt 0.4638 0.1382 0.0000
vt 0.4592 0.1396 0.0000
vt 0.4583 0.1369 0.0000
vt 0.4629 0.1355 0.0000
vt 0.7220 0.1642 0.0000
vt 0.7146 0.1642 0.0000
vt 0.7180 0.1601 0.0000
vt 0.7218 0.1601 0.0000
vt 0.7220 0.1470 0.0000
vt 0.7295 0.1470 0.0000
vt 0.7255 0.1516 0.0000
vt 0.7217 0.1516 0.0000
vt 0.8629 0.0393 0.0000
vt 0.8595 0.0408 0.0000
vt 0.8595 0.0389 0.0000
vt 0.8629 0.0375 0.0000
vt 0.8471 0.0348 0.0000
vt 0.8505 0.0364 0.0000
vt 0.8504 0.0383 0.0000
vt 0.8471 0.0367 0.0000
vt 0.8595 0.0374 0.0000
vt 0.8629 0.0359 0.0000
vt 0.8504 0.0398 0.0000
vt 0.8470 0.0383 0.0000
vt 0.8869 0.1281 0.0000
vt 0.8941 0.1315 0.0000
vt 0.4395 0.4323 0.0000
vt 0.4322 0.4356 0.0000
vt 0.2510 0.3721 0.0000
vt 0.2556 0.3721 0.0000
vt 0.2559 0.4031 0.0000
vt 0.2513 0.4024 0.0000
vt 0.2559 0.4326 0.0000
vt 0.2512 0.4314 0.0000
vt 0.0380 0.4075 0.0000
vt 0.0333 0.4082 0.0000
vt 0.0334 0.3796 0.0000
vt 0.0381 0.3785 0.0000
vt 0.0374 0.4378 0.0000
vt 0.0328 0.4378 0.0000
vt 0.8885 0.1274 0.0000
vt 0.8953 0.1305 0.0000
vt 0.4402 0.4335 0.0000
vt 0.4334 0.4366 0.0000
vt 0.1307 0.4423 0.0000
vt 0.1355 0.4425 0.0000
vt 0.0590 0.4965 0.0000
vt 0.0542 0.4968 0.0000
vt 0.6459 0.0030 0.0000
vt 0.6413 0.0030 0.0000
vt 0.6412 0.0001 0.0000
vt 0.6459 0.0001 0.0000
vt 0.7727 0.3105 0.0000
vt 0.7775 0.3111 0.0000
vt 0.7773 0.3140 0.0000
vt 0.7725 0.3134 0.0000
vt 0.7722 0.1762 0.0000
vt 0.7674 0.1767 0.0000
vt 0.7672 0.1738 0.0000
vt 0.7720 0.1733 0.0000
vt 0.6463 0.1699 0.0000
vt 0.6509 0.1699 0.0000
vt 0.6508 0.1728 0.0000
vt 0.6462 0.1728 0.0000
vt 0.8593 0.0347 0.0000
vt 0.8627 0.0332 0.0000
vt 0.8501 0.0425 0.0000
vt 0.8467 0.0409 0.0000
vt 0.8661 0.0317 0.0000
vt 0.8434 0.0394 0.0000
vt 0.8120 0.0081 0.0000
vt 0.8122 0.0055 0.0000
vt 0.8561 0.0423 0.0000
vt 0.8561 0.0404 0.0000
vt 0.8538 0.0380 0.0000
vt 0.8538 0.0398 0.0000
vt 0.8561 0.0389 0.0000
vt 0.8538 0.0414 0.0000
vt 0.8818 0.1242 0.0000
vt 0.8150 0.0105 0.0000
vt 0.8113 0.0100 0.0000
vt 0.8239 -0.0000 0.0000
# 677 texture coords

o Sphere001
g Sphere001
usemtl wire_086086086
s 4
f 9/25/9 10/26/10 11/27/11 12/28/12 
f 12/28/12 11/27/11 13/29/13 14/30/14 
f 15/31/15 16/32/16 17/33/17 18/34/18 
f 19/35/19 20/36/20 21/37/21 22/38/22 
s 1
f 23/39/23 24/40/24 25/41/25 26/42/26 
f 26/42/26 25/41/25 27/43/27 28/44/28 
s 4
f 10/26/10 29/45/29 30/46/30 11/27/11 
f 11/27/11 30/46/30 31/47/31 13/29/13 
f 16/32/16 32/48/32 33/49/33 17/33/17 
f 20/36/20 34/50/34 35/51/35 21/37/21 
s 1
f 36/52/36 37/53/37 38/54/38 39/55/39 
f 39/55/39 38/54/38 40/56/40 41/57/41 
f 24/40/24 42/58/42 43/59/43 25/41/25 
f 25/41/25 43/59/43 44/60/44 27/43/27 
s 4
f 29/45/29 45/61/45 46/62/46 30/46/30 
f 30/46/30 46/62/46 47/63/47 31/47/31 
f 32/48/32 48/64/48 49/65/49 33/49/33 
f 34/50/34 50/66/50 51/67/51 35/51/35 
s 1
f 37/53/37 52/68/52 53/69/53 38/54/38 
f 38/54/38 53/69/53 54/70/54 40/56/40 
f 43/71/43 55/72/55 56/73/56 44/74/44 
s 4
f 45/61/45 57/75/57 58/76/58 46/62/46 
f 46/62/46 58/76/58 59/77/59 47/63/47 
f 48/64/48 60/78/60 61/79/61 49/65/49 
f 50/66/50 62/80/62 63/81/63 51/67/51 
s 1
f 52/82/52 64/83/64 65/84/65 53/85/53 
f 66/86/66 67/87/67 68/88/68 69/89/69 
f 69/89/69 68/88/68 70/90/70 71/91/71 
f 72/92/72 73/93/73 74/94/74 75/95/75 
s 4
f 13/29/13 16/32/16 15/31/15 14/30/14 
f 17/33/17 20/36/20 19/35/19 18/34/18 
f 31/47/31 32/48/32 16/32/16 13/29/13 
f 33/49/33 34/50/34 20/36/20 17/33/17 
f 47/63/47 48/64/48 32/48/32 31/47/31 
f 49/65/49 50/66/50 34/50/34 33/49/33 
f 59/77/59 60/78/60 48/64/48 47/63/47 
f 61/79/61 62/80/62 50/66/50 49/65/49 
s 2
f 76/96/76 77/97/77 78/98/78 79/99/79 
s 1
f 80/100/80 72/92/72 75/95/75 81/101/81 
s 2
f 79/99/79 78/98/78 82/102/82 83/103/83 
f 84/104/84 85/105/85 86/106/86 87/107/87 
s 1
f 88/108/88 89/109/89 90/110/90 91/111/91 
f 92/112/92 93/113/93 94/114/94 95/115/95 
f 96/116/96 92/112/92 95/115/95 97/117/97 
f 93/118/93 98/119/98 99/120/99 94/121/94 
s 4
f 100/122/100 96/123/96 97/124/97 101/125/101 
s 2
f 102/126/102 103/127/103 104/128/104 105/129/105 
s 8
f 103/130/103 106/131/106 66/132/66 104/133/104 
f 106/131/106 107/134/107 67/135/67 66/132/66 
s 4
f 107/136/107 108/137/108 68/138/68 67/139/67 
f 108/137/108 109/140/109 70/141/70 68/138/68 
f 100/122/100 101/125/101 90/142/90 89/143/89 
s 8
f 101/144/101 110/145/110 91/146/91 90/147/90 
f 110/145/110 111/148/111 112/149/112 91/146/91 
s 2
f 111/150/111 113/151/113 114/152/114 112/153/112 
f 113/151/113 115/154/115 116/155/116 114/152/114 
s 4
f 117/156/117 118/157/118 119/158/119 120/159/120 
s 8
f 118/160/118 121/161/121 86/162/86 119/163/119 
f 121/161/121 99/164/99 87/165/87 86/162/86 
s 1
f 99/120/99 98/119/98 84/166/84 87/167/87 
f 98/119/98 122/168/122 123/169/83 84/166/84 
f 124/170/123 125/171/124 76/172/76 79/173/79 
s 16
f 125/174/124 126/175/125 77/176/77 76/177/76 
f 126/175/125 127/178/126 128/179/127 77/176/77 
s 4
f 127/180/126 129/181/128 130/182/129 128/183/127 
f 129/181/128 131/184/130 132/185/131 130/182/129 
s 1
f 133/186/132 134/187/133 9/188/9 135/189/134 
f 134/187/133 136/190/135 10/191/10 9/188/9 
f 136/190/135 137/192/136 29/193/29 10/191/10 
f 137/192/136 138/194/137 45/195/45 29/193/29 
f 138/194/137 139/196/138 57/197/57 45/195/45 
f 139/198/138 140/199/139 141/200/140 57/75/57 
f 140/199/139 142/201/141 143/202/142 141/200/140 
f 142/201/141 144/203/143 145/204/144 143/202/142 
f 144/203/143 146/205/145 147/206/146 145/204/144 
f 146/205/145 148/207/147 149/208/148 147/206/146 
f 148/207/147 150/209/149 151/210/150 149/208/148 
f 150/209/149 152/211/151 153/212/152 151/210/150 
f 152/211/151 154/213/153 63/81/63 153/212/152 
f 154/214/153 155/215/154 51/216/51 63/217/63 
f 155/215/154 156/218/155 35/219/35 51/216/51 
f 156/218/155 157/220/156 21/221/21 35/219/35 
f 157/220/156 158/222/157 22/223/22 21/221/21 
f 158/222/157 159/224/158 160/225/159 22/223/22 
f 159/224/158 161/226/160 162/227/161 160/225/159 
f 161/226/160 127/228/126 163/229/162 162/227/161 
s 8
f 127/230/126 126/231/125 164/232/163 163/233/162 
f 126/231/125 125/234/124 165/235/164 164/232/163 
s 2
f 125/236/124 166/237/165 167/238/166 165/239/164 
f 166/240/165 107/241/107 168/242/167 167/243/166 
s 16
f 107/241/107 106/244/106 169/245/168 168/242/167 
f 106/244/106 103/246/103 170/247/169 169/245/168 
s 1
f 103/248/103 171/249/170 172/250/171 170/251/169 
f 171/249/170 133/186/132 135/189/134 172/250/171 
s 8
f 99/164/99 121/161/121 173/252/172 174/253/173 
f 110/145/110 101/144/101 175/254/174 176/255/175 
s 2
f 95/256/95 94/257/94 177/258/176 178/259/177 
f 97/260/97 95/256/95 178/259/177 179/261/178 
s 1
f 94/121/94 99/120/99 174/262/173 177/263/176 
s 4
f 101/125/101 97/124/97 179/264/178 175/265/174 
s 8
f 174/253/173 173/252/172 180/266/179 181/267/180 
f 176/255/175 175/254/174 182/268/181 183/269/182 
s 2
f 178/259/177 177/258/176 184/270/183 185/271/184 
f 179/261/178 178/259/177 185/271/184 186/272/185 
s 1
f 177/263/176 174/262/173 181/273/180 184/274/183 
s 4
f 175/265/174 179/264/178 186/275/185 182/276/181 
s 1
f 187/277/186 188/278/187 189/279/188 190/280/189 
f 188/278/187 191/281/190 192/282/191 189/279/188 
f 191/281/190 193/283/192 194/284/193 192/282/191 
f 195/285/194 196/286/195 197/287/196 198/288/197 
f 196/286/195 199/289/198 200/290/199 197/287/196 
f 199/289/198 201/291/200 202/292/201 200/290/199 
s 2
f 190/293/189 189/294/188 203/295/202 204/296/203 
f 189/294/188 192/297/191 205/298/204 203/295/202 
s off
f 192/299/191 194/300/193 206/301/205 205/302/204 
s 2
f 198/303/197 197/304/196 207/305/206 208/306/207 
f 197/304/196 200/307/199 209/308/208 207/305/206 
s off
f 200/309/199 202/310/201 210/311/209 209/312/208 
s 2
f 204/296/203 203/295/202 211/313/210 212/314/211 
f 203/295/202 205/298/204 213/315/212 211/313/210 
s off
f 205/302/204 206/301/205 214/316/213 213/317/212 
s 2
f 208/306/207 207/305/206 215/318/214 216/319/215 
f 207/305/206 209/308/208 217/320/216 215/318/214 
s off
f 209/312/208 210/311/209 218/321/217 217/322/216 
s 1
f 219/323/218 220/324/219 221/325/220 222/326/221 
f 220/324/219 223/327/222 224/328/223 221/325/220 
f 225/329/224 226/330/225 227/331/226 228/332/227 
f 226/330/225 229/333/228 230/334/229 227/331/226 
f 231/335/230 23/39/23 26/42/26 232/336/231 
f 232/336/231 26/42/26 28/44/28 233/337/232 
f 234/338/233 36/52/36 39/55/39 235/339/234 
f 235/339/234 39/55/39 41/57/41 236/340/235 
f 42/341/42 237/342/236 55/72/55 43/71/43 
f 53/85/53 65/84/65 238/343/237 54/344/54 
f 222/326/221 221/325/220 239/345/238 240/346/239 
f 221/325/220 224/328/223 241/347/240 239/345/238 
f 228/332/227 227/331/226 242/348/241 243/349/242 
f 227/331/226 230/334/229 244/350/243 242/348/241 
f 107/241/107 166/240/165 245/351/244 246/352/245 
f 166/240/165 125/353/124 247/354/246 245/351/244 
f 125/171/124 124/170/123 248/355/247 247/356/246 
f 124/170/123 249/357/248 250/358/249 248/355/247 
s 4
f 100/122/100 251/359/250 252/360/251 96/123/96 
f 108/137/108 107/136/107 246/361/245 253/362/252 
f 172/363/171 135/364/134 254/365/253 255/366/254 
f 255/366/254 254/365/253 256/367/255 257/368/256 
f 15/31/15 18/34/18 258/369/257 259/370/258 
f 260/371/259 160/372/159 162/373/161 261/374/260 
s 1
f 237/342/236 262/375/261 263/376/262 55/72/55 
f 55/72/55 263/376/262 264/377/263 56/73/56 
s 4
f 57/75/57 141/200/140 143/202/142 58/76/58 
f 143/202/142 145/204/144 59/77/59 58/76/58 
f 147/206/146 149/208/148 61/79/61 60/78/60 
f 62/80/62 151/210/150 153/212/152 63/81/63 
s 1
f 64/83/64 265/378/264 266/379/265 65/84/65 
f 65/84/65 266/379/265 267/380/266 238/343/237 
f 268/381/267 269/382/268 270/383/269 271/384/270 
f 272/385/271 273/386/272 274/387/273 275/388/274 
f 269/382/268 276/389/275 277/390/276 270/383/269 
f 275/388/274 274/387/273 278/391/277 279/392/278 
f 280/393/279 263/376/262 262/375/261 281/394/280 
f 275/388/274 279/392/278 267/380/266 266/379/265 
f 275/388/274 266/379/265 265/378/264 272/385/271 
f 280/393/279 282/395/281 264/377/263 263/376/262 
f 240/346/239 239/345/238 283/396/282 284/397/283 
f 239/345/238 241/347/240 285/398/284 283/396/282 
f 242/348/241 286/399/285 287/400/286 243/349/242 
f 244/350/243 288/401/287 286/399/285 242/348/241 
f 289/402/288 290/403/289 291/404/290 292/405/291 
f 293/406/292 289/402/288 292/405/291 294/407/293 
f 286/399/285 295/408/294 296/409/295 287/400/286 
f 288/401/287 297/410/296 295/408/294 286/399/285 
f 298/411/297 299/412/298 290/403/289 289/402/288 
f 300/413/299 298/411/297 289/402/288 293/406/292 
f 301/414/300 302/415/301 303/416/302 304/417/303 
f 305/418/304 306/419/305 302/415/301 301/414/300 
s 4
f 257/368/256 168/420/167 169/421/168 255/366/254 
f 307/422/306 308/423/307 165/424/164 167/425/166 
s 1
f 309/426/308 310/427/309 191/281/190 188/278/187 
s 4
f 15/31/15 259/370/258 256/367/255 14/30/14 
f 18/34/18 19/35/19 260/371/259 258/369/257 
f 147/206/146 60/78/60 59/77/59 145/204/144 
f 151/210/150 62/80/62 61/79/61 149/208/148 
s 1
f 282/395/281 280/393/279 269/382/268 268/381/267 
f 273/386/272 271/384/270 270/383/269 274/387/273 
f 280/393/279 281/394/280 276/389/275 269/382/268 
f 270/383/269 277/390/276 278/391/277 274/387/273 
s 4
f 307/422/306 167/425/166 168/420/167 257/368/256 
f 308/423/307 261/374/260 164/428/163 165/424/164 
s 1
f 309/426/308 188/278/187 187/277/186 311/429/310 
f 246/352/245 245/351/244 309/430/308 311/431/310 
f 245/351/244 247/354/246 310/432/309 309/430/308 
f 247/356/246 248/355/247 191/433/190 310/434/309 
f 248/355/247 250/358/249 193/435/192 191/433/190 
f 93/113/93 92/112/92 196/286/195 195/285/194 
f 92/112/92 96/116/96 199/289/198 196/286/195 
s 4
f 96/123/96 252/360/251 201/436/200 199/437/198 
f 253/362/252 246/361/245 311/438/310 187/439/186 
s 1
f 69/89/69 71/91/71 312/440/311 105/441/105 
f 69/89/69 105/441/105 104/442/104 66/86/66 
s 4
f 255/366/254 169/421/168 170/443/169 172/363/171 
f 261/374/260 162/373/161 163/444/162 164/428/163 
s 2
f 78/98/78 77/97/77 128/445/127 130/446/129 
f 78/98/78 130/446/129 132/447/131 82/102/82 
s 1
f 114/448/114 88/108/88 91/111/91 112/449/112 
s 2
f 85/105/85 120/450/120 119/451/119 86/106/86 
s 1
f 231/335/230 232/336/231 220/324/219 219/323/218 
f 232/336/231 233/337/232 223/327/222 220/324/219 
f 234/338/233 235/339/234 226/330/225 225/329/224 
f 235/339/234 236/340/235 229/333/228 226/330/225 
s 4
f 135/364/134 9/25/9 12/28/12 254/365/253 
f 254/365/253 12/28/12 14/30/14 256/367/255 
f 308/423/307 307/422/306 259/370/258 258/369/257 
f 19/35/19 22/38/22 160/372/159 260/371/259 
f 259/370/258 307/422/306 257/368/256 256/367/255 
f 261/374/260 308/423/307 258/369/257 260/371/259 
s 2
f 313/452/312 314/453/313 219/454/218 222/455/221 
f 314/453/313 315/456/314 231/457/230 219/454/218 
f 315/456/314 316/458/315 23/459/23 231/457/230 
f 316/458/315 317/460/316 24/461/24 23/459/23 
f 317/460/316 318/462/317 42/463/42 24/461/24 
f 318/462/317 319/464/318 237/465/236 42/463/42 
f 319/464/318 320/466/319 262/467/261 237/465/236 
f 320/466/319 321/468/320 281/469/280 262/467/261 
f 321/468/320 322/470/321 276/471/275 281/469/280 
f 322/470/321 323/472/322 277/473/276 276/471/275 
f 323/472/322 324/474/323 278/475/277 277/473/276 
f 324/474/323 325/476/324 279/477/278 278/475/277 
f 325/476/324 326/478/325 267/479/266 279/477/278 
f 326/478/325 327/480/326 238/481/237 267/479/266 
f 327/480/326 328/482/327 54/483/54 238/481/237 
f 328/482/327 329/484/328 40/485/40 54/483/54 
f 329/484/328 330/486/329 41/487/41 40/485/40 
f 330/486/329 331/488/330 236/489/235 41/487/41 
f 331/488/330 332/490/331 229/491/228 236/489/235 
f 332/490/331 333/492/332 230/493/229 229/491/228 
f 333/492/332 334/494/333 244/495/243 230/493/229 
f 334/494/333 335/496/334 288/497/287 244/495/243 
f 335/496/334 336/498/335 297/499/296 288/497/287 
f 337/500/336 338/501/337 306/502/305 305/503/304 
s 8
f 338/504/337 339/505/338 302/506/301 306/507/305 
f 339/505/338 118/160/118 303/508/302 302/506/301 
s 32
f 118/509/118 117/510/117 304/511/303 303/512/302 
f 117/510/117 340/513/339 341/514/340 304/511/303 
f 129/515/128 127/516/126 243/517/242 287/518/286 
f 127/516/126 161/519/160 228/520/227 243/517/242 
f 161/519/160 159/521/158 225/522/224 228/520/227 
f 159/521/158 158/523/157 234/524/233 225/522/224 
f 158/523/157 157/525/156 36/526/36 234/524/233 
f 157/525/156 156/527/155 37/528/37 36/526/36 
f 156/527/155 155/529/154 52/530/52 37/528/37 
f 155/529/154 154/531/153 64/532/64 52/530/52 
f 154/531/153 152/533/151 265/534/264 64/532/64 
f 152/533/151 150/535/149 272/536/271 265/534/264 
f 150/535/149 148/537/147 273/538/272 272/536/271 
f 148/537/147 146/539/145 271/540/270 273/538/272 
f 146/539/145 144/541/143 268/542/267 271/540/270 
f 144/541/143 142/543/141 282/544/281 268/542/267 
f 142/543/141 140/545/139 264/546/263 282/544/281 
f 140/545/139 139/547/138 56/548/56 264/546/263 
f 139/547/138 138/549/137 44/550/44 56/548/56 
f 138/549/137 137/551/136 27/552/27 44/550/44 
f 137/551/136 136/553/135 28/554/28 27/552/27 
f 136/553/135 134/555/133 233/556/232 28/554/28 
f 134/555/133 133/557/132 223/558/222 233/556/232 
f 133/557/132 171/559/170 224/560/223 223/558/222 
f 171/559/170 103/561/103 241/562/240 224/560/223 
f 103/561/103 102/563/102 285/564/284 241/562/240 
f 102/563/102 342/565/341 343/566/342 285/564/284 
f 113/567/113 111/568/111 300/569/299 293/570/292 
s 8
f 111/148/111 344/571/343 298/572/297 300/573/299 
f 344/571/343 345/574/344 299/575/298 298/572/297 
s 2
f 345/576/344 346/577/345 290/578/289 299/579/298 
f 346/577/345 347/580/346 291/581/290 290/578/289 
f 348/582/347 349/583/348 240/584/239 284/585/283 
f 349/583/348 313/452/312 222/455/221 240/584/239 
s 8
f 111/148/111 110/145/110 176/255/175 344/571/343 
f 121/161/121 118/160/118 339/505/338 173/252/172 
f 344/571/343 176/255/175 183/269/182 345/574/344 
f 173/252/172 339/505/338 338/504/337 180/266/179 
s 2
f 212/586/211 211/587/210 72/92/72 80/100/80 
f 211/587/210 213/588/212 73/93/73 72/92/72 
s off
f 213/588/212 214/589/213 74/94/74 73/93/73 
s 2
f 216/319/215 215/318/214 350/590/349 351/591/350 
f 215/318/214 217/320/216 352/592/351 350/590/349 
s off
f 217/593/216 218/594/217 353/595/352 352/596/351 
s 1
f 354/597/70 355/598/70 356/599/353 357/600/354 
f 358/601/355 359/602/356 360/603/357 361/604/358 
f 361/604/358 360/603/357 353/595/352 362/605/359 
s 2
f 363/606/360 364/607/361 123/608/83 365/609/83 
s 4
f 366/610/362 251/359/250 355/611/70 354/612/70 
s 2
f 367/613/363 342/614/341 312/615/311 368/616/364 
s 1
f 369/617/365 249/357/248 83/618/83 365/619/83 
s 4
f 370/620/366 340/621/339 371/622/367 372/623/368 
s 1
f 373/624/369 374/625/370 375/626/193 376/627/193 
f 377/628/371 378/629/372 379/630/201 380/631/201 
s off
f 376/632/193 375/633/193 381/634/205 382/635/205 
f 380/636/201 379/637/201 383/638/209 384/639/209 
f 382/635/205 381/634/205 385/640/213 386/641/213 
f 384/639/209 383/638/209 387/642/217 388/643/217 
s 1
f 369/617/365 122/168/122 389/644/373 390/645/374 
s 4
f 366/610/362 109/140/109 391/646/375 392/647/376 
s 1
f 393/648/377 394/649/378 395/650/379 396/651/380 
f 396/651/380 395/650/379 343/652/342 397/653/381 
f 398/654/382 399/655/383 341/656/340 400/657/384 
f 401/658/385 402/659/386 399/655/383 398/654/382 
f 390/645/374 389/644/373 374/660/370 373/661/369 
s 4
f 392/647/376 391/646/375 378/662/372 377/663/371 
s 1
f 357/600/354 356/599/353 116/664/116 368/665/364 
s 2
f 372/666/368 371/667/367 364/607/361 363/606/360 
f 403/668/387 404/669/388 402/670/386 401/671/385 
s 32
f 370/672/366 131/673/130 296/674/295 400/675/384 
f 367/676/363 115/677/115 294/678/293 397/679/381 
s 2
f 405/680/389 406/681/390 394/682/378 393/683/377 
s off
f 386/641/213 385/640/213 359/684/356 358/685/355 
f 388/643/217 387/642/217 81/686/81 362/687/359 
s 1
f 70/90/70 354/597/70 357/600/354 71/91/71 
f 74/94/74 358/601/355 361/604/358 75/95/75 
f 75/95/75 361/604/358 362/605/359 81/101/81 
s 2
f 82/102/82 363/606/360 365/609/83 83/103/83 
s 4
f 109/140/109 366/610/362 354/612/70 70/141/70 
s 2
f 115/154/115 367/613/363 368/616/364 116/155/116 
s 1
f 122/168/122 369/617/365 365/619/83 123/169/83 
s 4
f 131/184/130 370/620/366 372/623/368 132/185/131 
s 1
f 193/283/192 373/624/369 376/627/193 194/284/193 
f 201/291/200 377/628/371 380/631/201 202/292/201 
s off
f 194/300/193 376/632/193 382/635/205 206/301/205 
f 202/310/201 380/636/201 384/639/209 210/311/209 
f 206/301/205 382/635/205 386/641/213 214/316/213 
f 210/311/209 384/639/209 388/643/217 218/321/217 
s 1
f 249/357/248 369/617/365 390/645/374 250/358/249 
s 4
f 251/359/250 366/610/362 392/647/376 252/360/251 
s 1
f 291/404/290 393/648/377 396/651/380 292/405/291 
f 292/405/291 396/651/380 397/653/381 294/407/293 
f 295/408/294 398/654/382 400/657/384 296/409/295 
f 297/410/296 401/658/385 398/654/382 295/408/294 
f 250/358/249 390/645/374 373/661/369 193/435/192 
s 4
f 252/360/251 392/647/376 377/663/371 201/436/200 
s 1
f 71/91/71 357/600/354 368/665/364 312/440/311 
s 2
f 132/447/131 372/666/368 363/606/360 82/102/82 
f 336/498/335 403/668/387 401/671/385 297/499/296 
s 32
f 340/513/339 370/672/366 400/675/384 341/514/340 
f 342/565/341 367/676/363 397/679/381 343/566/342 
s 2
f 347/580/346 405/680/389 393/683/377 291/581/290 
s off
f 214/316/213 386/641/213 358/685/355 74/688/74 
f 218/321/217 388/643/217 362/687/359 353/689/352 
s 1
f 355/598/70 89/109/89 88/108/88 356/599/353 
f 359/602/356 351/690/350 350/691/349 360/603/357 
f 360/603/357 350/691/349 352/596/351 353/595/352 
s 2
f 364/607/361 85/105/85 84/104/84 123/608/83 
s 4
f 251/359/250 100/122/100 89/143/89 355/611/70 
s 2
f 342/614/341 102/126/102 105/129/105 312/615/311 
s 1
f 249/357/248 124/170/123 79/173/79 83/618/83 
s 4
f 340/621/339 117/156/117 120/159/120 371/622/367 
s 1
f 374/625/370 195/285/194 198/288/197 375/626/193 
f 378/629/372 187/277/186 190/280/189 379/630/201 
s off
f 375/633/193 198/692/197 208/693/207 381/634/205 
f 379/637/201 190/694/189 204/695/203 383/638/209 
f 381/634/205 208/693/207 216/696/215 385/640/213 
f 383/638/209 204/695/203 212/697/211 387/642/217 
s 1
f 122/168/122 98/119/98 93/118/93 389/644/373 
s 4
f 109/140/109 108/137/108 253/362/252 391/646/375 
s 1
f 394/649/378 284/397/283 283/396/282 395/650/379 
f 395/650/379 283/396/282 285/398/284 343/652/342 
f 399/655/383 301/414/300 304/417/303 341/656/340 
f 402/659/386 305/418/304 301/414/300 399/655/383 
f 389/644/373 93/118/93 195/698/194 374/660/370 
s 4
f 391/646/375 253/362/252 187/439/186 378/662/372 
s 1
f 356/599/353 88/108/88 114/448/114 116/664/116 
s 2
f 371/667/367 120/450/120 85/105/85 364/607/361 
f 404/669/388 337/500/336 305/503/304 402/670/386 
s 32
f 131/673/130 129/515/128 287/518/286 296/674/295 
f 115/677/115 113/567/113 293/570/292 294/678/293 
s 2
f 406/681/390 348/582/347 284/585/283 394/682/378 
s off
f 385/699/213 216/700/215 351/690/350 359/602/356 
f 387/701/217 212/586/211 80/100/80 81/101/81 
# 376 polygons

#
# object Box004
#

v  -72.6940 37.3859 -77.4772
v  -72.6940 33.9090 -77.4772
v  -76.2763 33.9090 -77.4772
v  -76.2763 37.3859 -77.4772
v  -72.7923 34.0044 -72.7242
v  -72.7923 37.2905 -72.7242
v  -76.1781 37.2905 -72.7242
v  -76.1781 34.0044 -72.7242
v  -76.2763 26.1270 -73.3901
v  -72.6940 26.1270 -73.3901
v  -72.6940 26.1270 -72.7242
v  -76.2763 26.1270 -72.7242
v  -58.9302 33.9090 -73.3901
v  -58.9302 37.3859 -73.3901
v  -58.9302 37.3859 -72.7242
v  -58.9302 33.9090 -72.7242
v  -72.6940 45.1679 -73.3901
v  -76.2763 45.1679 -73.3901
v  -76.2763 45.1679 -72.7242
v  -72.6940 45.1679 -72.7242
v  -90.0402 37.3859 -73.3901
v  -90.0402 33.9090 -73.3901
v  -90.0402 33.9090 -72.7242
v  -90.0402 37.3859 -72.7242
v  -72.6940 33.9090 -73.3901
v  -72.6940 37.3859 -73.3901
v  -76.2763 37.3859 -73.3901
v  -76.2763 33.9090 -73.3901
v  -59.7836 34.0044 -72.7242
v  -59.7836 37.2905 -72.7242
v  -89.1867 37.2905 -72.7242
v  -89.1867 34.0044 -72.7242
v  -58.9302 26.1270 -73.3901
v  -58.9302 26.1270 -72.7242
v  -90.0402 26.1270 -72.7242
v  -90.0402 26.1270 -73.3901
v  -90.0402 45.1679 -73.3901
v  -90.0402 45.1679 -72.7242
v  -58.9302 45.1679 -72.7242
v  -58.9302 45.1679 -73.3901
v  -72.7923 44.6456 -72.7242
v  -76.1781 44.6456 -72.7242
v  -76.1781 26.6493 -72.7242
v  -72.7923 26.6493 -72.7242
v  -59.7836 44.6456 -72.7242
v  -59.7836 26.6493 -72.7242
v  -89.1867 26.6493 -72.7242
v  -89.1867 44.6456 -72.7242
v  -90.0402 26.1270 -72.3350
v  -76.2763 26.1270 -72.3350
v  -76.1781 26.6493 -72.3350
v  -89.1867 26.6493 -72.3350
v  -72.6940 26.1270 -72.3350
v  -72.7923 26.6493 -72.3350
v  -58.9302 26.1270 -72.3350
v  -59.7836 26.6493 -72.3350
v  -58.9302 33.9090 -72.3350
v  -59.7836 34.0044 -72.3350
v  -58.9302 37.3859 -72.3350
v  -59.7836 37.2905 -72.3350
v  -58.9302 45.1679 -72.3350
v  -59.7836 44.6456 -72.3350
v  -72.6940 45.1679 -72.3350
v  -72.7923 44.6456 -72.3350
v  -76.2763 45.1679 -72.3350
v  -76.1781 44.6456 -72.3350
v  -90.0402 45.1679 -72.3350
v  -89.1867 44.6456 -72.3350
v  -90.0402 37.3859 -72.3350
v  -89.1867 37.2905 -72.3350
v  -90.0402 33.9090 -72.3350
v  -89.1867 34.0044 -72.3350
v  -72.6940 33.9090 -74.7325
v  -72.6940 37.3859 -74.7325
v  -76.2763 33.9090 -74.7325
v  -76.2763 37.3859 -74.7325
v  -72.6940 22.4926 -74.7325
v  -76.2763 22.4926 -74.7325
v  -76.2763 22.4926 -77.4772
v  -72.6940 22.4926 -77.4772
v  -76.2763 23.3137 -74.7325
v  -72.6940 23.3137 -74.7325
v  -76.2763 23.3137 -77.4772
v  -72.6940 23.3137 -77.4772
v  -64.5931 23.3137 -69.3051
v  -84.3772 23.3137 -69.3051
v  -84.3772 22.4926 -69.3051
v  -64.5931 22.4926 -69.3051
v  -84.3772 23.3137 -79.9735
v  -84.3772 22.4925 -79.9735
v  -64.5931 23.3137 -79.9735
v  -64.5931 22.4926 -79.9735
# 92 vertices

vn 0.5774 0.5774 -0.5774
vn 0.7071 -0.0000 -0.7071
vn -0.7071 -0.0000 -0.7071
vn -0.5774 0.5774 -0.5774
vn 0.0000 -0.0000 1.0000
vn 0.0000 -0.7071 -0.7071
vn 0.0000 -1.0000 -0.0000
vn 0.7071 0.0000 -0.7071
vn 1.0000 0.0000 -0.0000
vn 0.0000 0.7071 -0.7071
vn 0.0000 1.0000 0.0000
vn -0.7071 0.0000 -0.7071
vn -1.0000 0.0000 -0.0000
vn 0.3015 -0.3015 -0.9045
vn 0.3015 0.3015 -0.9045
vn -0.3015 0.3015 -0.9045
vn -0.3015 -0.3015 -0.9045
vn -0.7071 -0.0000 0.7071
vn 0.7071 -0.0000 0.7071
vn 0.5774 -0.5774 -0.5774
vn 0.7071 -0.7071 -0.0000
vn -0.7071 -0.7071 -0.0000
vn -0.5774 -0.5774 -0.5774
vn -0.7071 0.7071 -0.0000
vn 0.7071 0.7071 -0.0000
vn 0.0000 -0.7071 0.7071
vn 0.0000 0.7071 0.7071
vn -0.5773 -0.5773 0.5774
vn -0.5773 0.5773 0.5774
vn 0.5773 0.5773 0.5774
vn 0.5773 -0.5773 0.5774
vn -0.5774 -0.5774 0.5773
vn 0.3015 0.3015 0.9045
vn 0.5774 -0.5774 0.5773
vn -0.3015 0.3015 0.9045
vn 0.5774 0.5774 0.5773
vn -0.3015 -0.3015 0.9045
vn -0.5774 0.5774 0.5773
vn 0.3015 -0.3015 0.9045
vn 0.9045 -0.3015 0.3015
vn 0.7071 0.7071 0.0000
vn -0.9045 -0.3015 0.3015
vn -0.7071 0.7071 0.0000
vn 0.0000 -1.0000 0.0000
vn -0.3015 0.9045 0.3015
vn 0.3015 0.9045 0.3015
vn -0.3015 0.9045 -0.3015
vn 0.3015 0.9045 -0.3015
vn 0.5774 0.5774 0.5774
vn -0.5774 0.5774 0.5774
vn -0.5774 -0.5774 0.5774
vn 0.5774 -0.5774 0.5774
# 52 vertex normals

vt 0.6804 0.1742 0.0000
vt 0.6804 0.2045 0.0000
vt 0.6243 0.2045 0.0000
vt 0.6243 0.1742 0.0000
vt 0.7468 0.5963 0.0000
vt 0.7468 0.6250 0.0000
vt 0.6937 0.6250 0.0000
vt 0.6937 0.5963 0.0000
vt 0.4343 0.8673 0.0000
vt 0.4904 0.8673 0.0000
vt 0.4904 0.8900 0.0000
vt 0.4343 0.8900 0.0000
vt 1.0000 0.8104 0.0000
vt 1.0000 0.8407 0.0000
vt 0.9773 0.8407 0.0000
vt 0.9773 0.8104 0.0000
vt 0.7056 0.6906 0.0000
vt 0.7617 0.6906 0.0000
vt 0.7617 0.7132 0.0000
vt 0.7056 0.7132 0.0000
vt 0.9618 0.8250 0.0000
vt 0.9618 0.8553 0.0000
vt 0.9391 0.8553 0.0000
vt 0.9391 0.8250 0.0000
vt 0.4874 0.7676 0.0000
vt 0.4874 0.7980 0.0000
vt 0.2718 0.7980 0.0000
vt 0.2718 0.7676 0.0000
vt 0.0000 0.7980 0.0000
vt 0.0000 0.7676 0.0000
vt 0.2156 0.7676 0.0000
vt 0.2156 0.7980 0.0000
vt 0.9506 0.5963 0.0000
vt 0.9506 0.6250 0.0000
vt 0.4899 0.6250 0.0000
vt 0.4899 0.5963 0.0000
vt 0.7060 0.8673 0.0000
vt 0.7060 0.8900 0.0000
vt 0.2186 0.8900 0.0000
vt 0.2186 0.8673 0.0000
vt 0.9773 0.6906 0.0000
vt 0.9773 0.7132 0.0000
vt 0.4899 0.7132 0.0000
vt 0.4899 0.6906 0.0000
vt 0.2718 0.8659 0.0000
vt 0.2156 0.8659 0.0000
vt 0.2156 0.6997 0.0000
vt 0.2718 0.6997 0.0000
vt 0.7468 0.6892 0.0000
vt 0.6937 0.6892 0.0000
vt 0.6937 0.5321 0.0000
vt 0.7468 0.5321 0.0000
vt 1.0000 0.9087 0.0000
vt 0.9773 0.9087 0.0000
vt 0.9773 0.7424 0.0000
vt 1.0000 0.7424 0.0000
vt 0.9618 0.9233 0.0000
vt 0.9391 0.9233 0.0000
vt 0.9391 0.7570 0.0000
vt 0.9618 0.7570 0.0000
vt 0.4874 0.8659 0.0000
vt 0.4874 0.6997 0.0000
vt 0.0000 0.6997 0.0000
vt 0.0000 0.8659 0.0000
vt 0.9506 0.6892 0.0000
vt 0.9506 0.5321 0.0000
vt 0.4899 0.5321 0.0000
vt 0.4899 0.6892 0.0000
vt 0.0000 0.3645 0.0000
vt 0.2156 0.3645 0.0000
vt 0.2172 0.3691 0.0000
vt 0.0134 0.3691 0.0000
vt 0.2718 0.3645 0.0000
vt 0.2702 0.3691 0.0000
vt 0.4874 0.3645 0.0000
vt 0.4740 0.3691 0.0000
vt 0.4874 0.4325 0.0000
vt 0.4740 0.4333 0.0000
vt 0.4874 0.4628 0.0000
vt 0.4740 0.4620 0.0000
vt 0.4874 0.5308 0.0000
vt 0.4740 0.5262 0.0000
vt 0.2718 0.5308 0.0000
vt 0.2702 0.5262 0.0000
vt 0.2156 0.5308 0.0000
vt 0.2172 0.5262 0.0000
vt 0.0000 0.5308 0.0000
vt 0.0134 0.5262 0.0000
vt 0.0000 0.4628 0.0000
vt 0.0134 0.4620 0.0000
vt 0.0000 0.4325 0.0000
vt 0.0134 0.4333 0.0000
vt 0.4343 0.9032 0.0000
vt 0.2186 0.9032 0.0000
vt 0.4904 0.9032 0.0000
vt 0.7060 0.9032 0.0000
vt 0.9641 0.8104 0.0000
vt 0.9641 0.7424 0.0000
vt 0.9641 0.8407 0.0000
vt 0.9641 0.9087 0.0000
vt 0.7056 0.7265 0.0000
vt 0.4899 0.7265 0.0000
vt 0.7617 0.7265 0.0000
vt 0.9773 0.7265 0.0000
vt 0.9259 0.8250 0.0000
vt 0.9259 0.7570 0.0000
vt 0.9259 0.8553 0.0000
vt 0.9259 0.9233 0.0000
vt 0.7468 0.7424 0.0000
vt 0.9506 0.7424 0.0000
vt 0.9506 0.7557 0.0000
vt 0.7468 0.7557 0.0000
vt 0.9945 0.1318 0.0000
vt 0.9945 0.1961 0.0000
vt 0.9812 0.1961 0.0000
vt 0.9812 0.1318 0.0000
vt 0.9945 0.2248 0.0000
vt 0.9812 0.2248 0.0000
vt 0.9945 0.2890 0.0000
vt 0.9812 0.2890 0.0000
vt 0.5163 0.7278 0.0000
vt 0.7201 0.7278 0.0000
vt 0.7201 0.7411 0.0000
vt 0.5163 0.7411 0.0000
vt 0.7731 0.7278 0.0000
vt 0.7731 0.7411 0.0000
vt 0.9769 0.7278 0.0000
vt 0.9769 0.7411 0.0000
vt 0.6415 0.0045 0.0000
vt 0.6415 0.0687 0.0000
vt 0.6282 0.0687 0.0000
vt 0.6282 0.0045 0.0000
vt 0.6415 0.0974 0.0000
vt 0.6282 0.0974 0.0000
vt 0.6415 0.1616 0.0000
vt 0.6282 0.1616 0.0000
vt 0.4899 0.7424 0.0000
vt 0.6937 0.7424 0.0000
vt 0.6937 0.7557 0.0000
vt 0.4899 0.7557 0.0000
vt 0.7534 0.2980 0.0000
vt 0.7534 0.2677 0.0000
vt 0.7991 0.2677 0.0000
vt 0.7991 0.2980 0.0000
vt 0.9504 0.2431 0.0000
vt 0.8943 0.2431 0.0000
vt 0.8943 0.1974 0.0000
vt 0.9504 0.1974 0.0000
vt 0.8350 0.0304 0.0000
vt 0.8350 0.0000 0.0000
vt 0.8807 0.0000 0.0000
vt 0.8807 0.0304 0.0000
vt 0.7476 0.3130 0.0000
vt 0.6915 0.3130 0.0000
vt 0.6915 0.2673 0.0000
vt 0.7476 0.2673 0.0000
vt 0.8925 0.2677 0.0000
vt 0.8925 0.2980 0.0000
vt 0.1830 0.1784 0.0000
vt 0.1269 0.1784 0.0000
vt 0.1269 0.0850 0.0000
vt 0.1830 0.0850 0.0000
vt 0.9741 0.0000 0.0000
vt 0.9741 0.0304 0.0000
vt 0.6915 0.1739 0.0000
vt 0.7476 0.1739 0.0000
vt 0.5461 0.8495 0.0000
vt 0.4899 0.8495 0.0000
vt 0.4899 0.7570 0.0000
vt 0.5461 0.7570 0.0000
vt 0.9741 0.1229 0.0000
vt 0.8807 0.1229 0.0000
vt 0.6804 0.2970 0.0000
vt 0.6243 0.2970 0.0000
vt 0.7991 0.1752 0.0000
vt 0.8925 0.1752 0.0000
vt 0.8578 0.7812 0.0000
vt 0.5479 0.7812 0.0000
vt 0.5479 0.7741 0.0000
vt 0.8578 0.7741 0.0000
vt 0.5479 0.7570 0.0000
vt 0.9111 0.7570 0.0000
vt 0.9111 0.7642 0.0000
vt 0.5479 0.7642 0.0000
vt 0.6137 0.7656 0.0000
vt 0.9237 0.7656 0.0000
vt 0.9237 0.7727 0.0000
vt 0.6137 0.7727 0.0000
vt 0.3790 0.5170 0.0000
vt 0.0158 0.5170 0.0000
vt 0.0158 0.5098 0.0000
vt 0.3790 0.5098 0.0000
vt 0.4391 0.1784 0.0000
vt 0.4952 0.1784 0.0000
vt 0.6221 0.3632 0.0000
vt 0.3121 0.3632 0.0000
vt 0.4952 0.0850 0.0000
vt 0.6221 0.0000 0.0000
vt 0.4391 0.0850 0.0000
vt 0.3121 0.0000 0.0000
vt 0.3099 0.3632 0.0000
vt 0.0000 0.3632 0.0000
vt 0.3099 0.0000 0.0000
vt 0.0000 0.0000 0.0000
# 204 texture coords

o Box004
g Box004
usemtl wire_086086086
s 2
f 407/702/391 408/703/392 409/704/393 410/705/394 
s 4
f 411/706/395 412/707/395 413/708/395 414/709/395 
s 8
f 415/710/396 416/711/396 417/712/397 418/713/397 
s 16
f 419/714/398 420/715/398 421/716/399 422/717/399 
s 32
f 423/718/400 424/719/400 425/720/401 426/721/401 
s 64
f 427/722/402 428/723/402 429/724/403 430/725/403 
s 2
f 420/726/398 419/727/398 431/728/404 432/729/405 
f 428/730/402 427/731/402 433/732/406 434/733/407 
s 4
f 435/734/408 436/735/408 412/707/395 411/706/395 
f 437/736/409 438/737/409 414/709/395 413/708/395 
s 8
f 416/711/396 439/738/410 440/739/411 417/712/397 
f 418/713/397 441/740/412 442/741/413 415/710/396 
s 32
f 424/719/400 443/742/394 444/743/414 425/720/401 
f 426/721/401 445/744/415 446/745/391 423/718/400 
s 2
f 431/728/404 416/746/396 415/747/396 434/733/407 
f 433/732/406 424/748/400 423/749/400 432/729/405 
s 4
f 412/707/395 447/750/416 448/751/416 413/708/395 
f 414/709/395 449/752/417 450/753/417 411/706/395 
s 16
f 420/715/398 446/754/391 445/755/415 421/716/399 
f 422/717/399 440/756/411 439/757/410 419/714/398 
s 64
f 428/723/402 442/758/413 441/759/412 429/724/403 
f 430/725/403 444/760/414 443/761/394 427/722/402 
s 2
f 419/727/398 439/762/410 416/746/396 431/728/404 
f 432/729/405 423/749/400 446/763/391 420/726/398 
f 427/731/402 443/764/394 424/748/400 433/732/406 
f 434/733/407 415/747/396 442/765/413 428/730/402 
s 4
f 436/735/408 451/766/418 447/750/416 412/707/395 
f 411/706/395 450/753/417 452/767/419 435/734/408 
f 438/737/409 453/768/420 449/752/417 414/709/395 
f 413/708/395 448/751/416 454/769/421 437/736/409 
f 455/770/422 456/771/416 457/772/417 458/773/423 
f 456/771/416 459/774/416 460/775/417 457/772/417 
f 459/774/416 461/776/424 462/777/425 460/775/417 
f 461/776/424 463/778/409 464/779/408 462/777/425 
f 463/778/409 465/780/409 466/781/408 464/779/408 
f 465/780/409 467/782/426 468/783/427 466/781/408 
f 467/782/426 469/784/417 470/785/416 468/783/427 
f 469/784/417 471/786/417 472/787/416 470/785/416 
f 471/786/417 473/788/428 474/789/429 472/787/416 
f 473/788/428 475/790/408 476/791/409 474/789/429 
f 475/790/408 477/792/408 478/793/409 476/791/409 
f 477/792/408 455/770/422 458/773/423 478/793/409 
s 8
f 441/740/412 418/713/397 456/794/416 455/795/422 
f 418/713/397 417/712/397 459/796/416 456/794/416 
f 417/712/397 440/739/411 461/797/424 459/796/416 
s 16
f 440/756/411 422/717/399 463/798/409 461/799/424 
f 422/717/399 421/716/399 465/800/409 463/798/409 
f 421/716/399 445/755/415 467/801/426 465/800/409 
s 32
f 445/744/415 426/721/401 469/802/417 467/803/426 
f 426/721/401 425/720/401 471/804/417 469/802/417 
f 425/720/401 444/743/414 473/805/428 471/804/417 
s 64
f 444/760/414 430/725/403 475/806/408 473/807/428 
f 430/725/403 429/724/403 477/808/408 475/806/408 
f 429/724/403 441/759/412 455/809/422 477/808/408 
s 1
f 449/810/417 453/811/420 458/812/423 457/813/417 
s 2
f 453/814/420 438/815/409 478/816/409 458/817/423 
f 438/815/409 437/818/409 476/819/409 478/816/409 
f 437/818/409 454/820/421 474/821/429 476/819/409 
s 1
f 454/822/421 448/823/416 472/824/416 474/825/429 
f 448/823/416 447/826/416 470/827/416 472/824/416 
f 447/826/416 451/828/418 468/829/427 470/827/416 
s 2
f 451/830/418 436/831/408 466/832/408 468/833/427 
f 436/831/408 435/834/408 464/835/408 466/832/408 
f 435/834/408 452/836/419 462/837/425 464/835/408 
s 1
f 452/838/419 450/839/417 460/840/417 462/841/425 
f 450/839/417 449/810/417 457/813/417 460/840/417 
s off
f 432/842/405 431/843/404 479/844/430 480/845/431 
f 431/846/404 434/847/407 481/848/432 479/849/430 
f 434/850/407 433/851/406 482/852/433 481/853/432 
f 433/854/406 432/855/405 480/856/431 482/857/433 
f 480/845/431 479/844/430 408/858/392 407/859/391 
f 483/860/434 484/861/434 485/862/397 486/863/434 
f 481/853/432 482/852/433 410/864/394 409/865/393 
f 482/857/433 480/856/431 407/866/391 410/867/394 
f 479/868/430 481/869/432 487/870/435 488/871/436 
f 481/853/432 409/865/393 489/872/437 487/873/435 
s 2
f 409/704/393 408/703/392 490/874/438 489/875/437 
s off
f 408/858/392 479/844/430 488/876/436 490/877/438 
f 491/878/439 492/879/440 493/880/441 494/881/442 
f 492/882/440 495/883/394 496/884/413 493/885/441 
s 2
f 495/886/394 497/887/391 498/888/410 496/889/413 
s off
f 497/890/391 491/891/439 494/892/442 498/893/410 
s 1
f 488/894/436 487/895/435 492/896/440 491/897/439 
f 487/895/435 489/898/437 495/899/394 492/896/440 
f 489/898/437 490/900/438 497/901/391 495/899/394 
f 490/900/438 488/894/436 491/897/439 497/901/391 
f 484/861/434 483/860/434 494/902/442 493/903/441 
f 483/860/434 486/863/434 498/904/410 494/902/442 
f 486/863/434 485/862/397 496/905/413 498/904/410 
f 485/862/397 484/861/434 493/903/441 496/905/413 
# 90 polygons

