# 3ds Max Wavefront OBJ Exporter v0.99 - (c)2007 guruware
# File Created: 27.08.2025 22:07:47

mtllib KitchenChair.mtl

#
# object Cylinder009
#

v  -78.7155 0.0000 132.5717
v  -79.3631 0.0000 130.9063
v  -79.3631 0.3265 130.9063
v  -78.7155 0.3265 132.5717
v  -80.5988 0.0000 129.6155
v  -80.5988 0.3265 129.6155
v  -82.2343 0.0000 128.8959
v  -82.2343 0.3265 128.8959
v  -84.0208 0.0000 128.8569
v  -84.0208 0.3265 128.8569
v  -85.6862 0.0000 129.5045
v  -85.6862 0.3265 129.5045
v  -86.9770 0.0000 130.7402
v  -86.9770 0.3265 130.7402
v  -87.6967 0.0000 132.3757
v  -87.6967 0.3265 132.3757
v  -87.7356 0.0000 134.1622
v  -87.7356 0.3265 134.1622
v  -87.0880 0.0000 135.8276
v  -87.0880 0.3265 135.8276
v  -85.8523 0.0000 137.1184
v  -85.8523 0.3265 137.1184
v  -84.2168 0.0000 137.8381
v  -84.2168 0.3265 137.8381
v  -82.4303 0.0000 137.8771
v  -82.4303 0.3265 137.8771
v  -80.7649 0.0000 137.2294
v  -80.7649 0.3265 137.2294
v  -79.4741 0.0000 135.9938
v  -79.4741 0.3265 135.9938
v  -78.7545 0.0000 134.3582
v  -78.7545 0.3265 134.3582
v  -82.5090 1.7869 132.9105
v  -82.3888 1.7869 133.2194
v  -82.7382 1.7869 132.6710
v  -83.0417 1.7869 132.5375
v  -83.3731 1.7869 132.5302
v  -83.6821 1.7869 132.6504
v  -83.9216 1.7869 132.8796
v  -84.0551 1.7869 133.1831
v  -84.0623 1.7869 133.5145
v  -83.9422 1.7869 133.8235
v  -83.7129 1.7869 134.0630
v  -83.4095 1.7869 134.1965
v  -83.0780 1.7869 134.2037
v  -82.7690 1.7869 134.0836
v  -82.5296 1.7869 133.8543
v  -82.3961 1.7869 133.5509
v  -83.2256 17.3887 133.3670
v  -81.1929 17.6517 133.0086
v  -81.4848 17.6517 132.2580
v  -82.0417 17.6517 131.6762
v  -82.7788 17.6517 131.3519
v  -83.5840 17.6517 131.3343
v  -84.3345 17.6517 131.6262
v  -84.9163 17.6517 132.1831
v  -85.2406 17.6517 132.9202
v  -85.2582 17.6517 133.7254
v  -84.9663 17.6517 134.4760
v  -84.4094 17.6517 135.0577
v  -83.6723 17.6517 135.3820
v  -82.8672 17.6517 135.3996
v  -82.1166 17.6517 135.1077
v  -81.5348 17.6517 134.5508
v  -81.2105 17.6517 133.8137
v  -82.5090 16.4319 132.9105
v  -82.3888 16.4319 133.2194
v  -82.7382 16.4319 132.6710
v  -83.0417 16.4319 132.5375
v  -83.3731 16.4319 132.5302
v  -83.6821 16.4319 132.6504
v  -83.9216 16.4319 132.8796
v  -84.0551 16.4319 133.1831
v  -84.0623 16.4319 133.5145
v  -83.9422 16.4319 133.8235
v  -83.7129 16.4319 134.0630
v  -83.4095 16.4319 134.1965
v  -83.0780 16.4319 134.2037
v  -82.7690 16.4319 134.0836
v  -82.5296 16.4319 133.8543
v  -82.3961 16.4319 133.5509
v  -76.1167 16.4319 132.1135
v  -77.1375 16.4319 129.4885
v  -77.1375 17.0602 129.4885
v  -76.1167 17.0602 132.1135
v  -79.0852 16.4319 127.4539
v  -79.0852 17.0602 127.4539
v  -81.6632 16.4319 126.3196
v  -81.6632 17.0602 126.3196
v  -84.4790 16.4319 126.2581
v  -84.4790 17.0602 126.2581
v  -87.1041 16.4319 127.2790
v  -87.1041 17.0602 127.2790
v  -89.1386 16.4319 129.2266
v  -89.1386 17.0602 129.2266
v  -90.2729 16.4319 131.8046
v  -90.2729 17.0602 131.8046
v  -90.3344 16.4319 134.6205
v  -90.3344 17.0602 134.6205
v  -89.3136 16.4319 137.2455
v  -89.3136 17.0602 137.2455
v  -87.3659 16.4319 139.2800
v  -87.3659 17.0602 139.2800
v  -84.7879 16.4319 140.4144
v  -84.7879 17.0602 140.4144
v  -81.9721 16.4319 140.4758
v  -81.9721 17.0602 140.4758
v  -79.3471 16.4319 139.4550
v  -79.3471 17.0602 139.4550
v  -77.3125 16.4319 137.5073
v  -77.3125 17.0602 137.5073
v  -76.1782 16.4319 134.9293
v  -76.1782 17.0602 134.9293
v  -79.4791 17.6517 132.7064
v  -80.0171 17.6517 131.3230
v  -79.5115 17.6517 134.1904
v  -80.1093 17.6517 135.5490
v  -81.1816 17.6517 136.5754
v  -82.5650 17.6517 137.1134
v  -84.0490 17.6517 137.0810
v  -85.4076 17.6517 136.4832
v  -86.4340 17.6517 135.4110
v  -86.9720 17.6517 134.0276
v  -86.9396 17.6517 132.5436
v  -86.3418 17.6517 131.1850
v  -85.2696 17.6517 130.1585
v  -83.8862 17.6517 129.6205
v  -82.4022 17.6517 129.6529
v  -81.0435 17.6517 130.2507
# 129 vertices

vn 0.9848 0.0000 -0.1736
vn 0.8434 0.0000 -0.5373
vn 0.7135 0.5332 -0.4545
vn 0.8331 0.5332 -0.1469
vn 0.5736 0.0000 -0.8192
vn 0.4852 0.5332 -0.6930
vn 0.2164 0.0000 -0.9763
vn 0.1831 0.5332 -0.8259
vn -0.1736 0.0000 -0.9848
vn -0.1469 0.5332 -0.8331
vn -0.5373 0.0000 -0.8434
vn -0.4545 0.5332 -0.7135
vn -0.8191 0.0000 -0.5736
vn -0.6930 0.5333 -0.4852
vn -0.9763 0.0000 -0.2164
vn -0.8259 0.5333 -0.1831
vn -0.9848 0.0000 0.1736
vn -0.8331 0.5332 0.1469
vn -0.8434 0.0000 0.5373
vn -0.7135 0.5332 0.4545
vn -0.5736 0.0000 0.8192
vn -0.4852 0.5332 0.6930
vn -0.2165 0.0000 0.9763
vn -0.1831 0.5333 0.8259
vn 0.1736 0.0000 0.9848
vn 0.1469 0.5333 0.8331
vn 0.5373 0.0000 0.8434
vn 0.4545 0.5333 0.7135
vn 0.8192 0.0000 0.5736
vn 0.6930 0.5332 0.4852
vn 0.9763 0.0000 0.2164
vn 0.8259 0.5332 0.1831
vn 0.6755 0.5988 -0.4303
vn 0.7887 0.5988 -0.1391
vn 0.4594 0.5988 -0.6561
vn 0.1733 0.5988 -0.7819
vn -0.1391 0.5988 -0.7887
vn -0.4303 0.5988 -0.6755
vn -0.6561 0.5988 -0.4594
vn -0.7819 0.5988 -0.1733
vn -0.7887 0.5988 0.1391
vn -0.6755 0.5988 0.4303
vn -0.4594 0.5988 0.6561
vn -0.1733 0.5988 0.7819
vn 0.1391 0.5988 0.7887
vn 0.4303 0.5988 0.6755
vn 0.6561 0.5988 0.4594
vn 0.7819 0.5988 0.1734
vn -0.0000 1.0000 0.0000
vn -0.0546 0.9985 0.0096
vn -0.0468 0.9985 0.0298
vn -0.0318 0.9985 0.0454
vn -0.0120 0.9985 0.0541
vn 0.0096 0.9985 0.0546
vn 0.0298 0.9985 0.0468
vn 0.0454 0.9985 0.0318
vn 0.0541 0.9985 0.0120
vn 0.0546 0.9985 -0.0096
vn 0.0468 0.9985 -0.0298
vn 0.0318 0.9985 -0.0454
vn 0.0120 0.9985 -0.0541
vn -0.0096 0.9985 -0.0546
vn -0.0298 0.9985 -0.0468
vn -0.0454 0.9985 -0.0318
vn -0.0541 0.9985 -0.0120
vn 0.5542 -0.7538 -0.3531
vn 0.6471 -0.7538 -0.1141
vn 0.3769 -0.7538 -0.5383
vn 0.1422 -0.7538 -0.6416
vn -0.1141 -0.7538 -0.6472
vn -0.3531 -0.7538 -0.5542
vn -0.5383 -0.7538 -0.3769
vn -0.6416 -0.7538 -0.1422
vn -0.6472 -0.7538 0.1141
vn -0.5542 -0.7538 0.3530
vn -0.3769 -0.7538 0.5383
vn -0.1422 -0.7538 0.6416
vn 0.1141 -0.7538 0.6472
vn 0.3531 -0.7538 0.5542
vn 0.5383 -0.7538 0.3769
vn 0.6415 -0.7538 0.1422
vn 0.7348 -0.6658 -0.1296
vn 0.6293 -0.6658 -0.4009
vn 0.6702 0.6071 -0.4270
vn 0.7826 0.6071 -0.1380
vn 0.4280 -0.6657 -0.6113
vn 0.4558 0.6070 -0.6510
vn 0.1615 -0.6658 -0.7285
vn 0.1720 0.6071 -0.7758
vn -0.1296 -0.6658 -0.7348
vn -0.1380 0.6071 -0.7826
vn -0.4009 -0.6657 -0.6293
vn -0.4270 0.6070 -0.6702
vn -0.6113 -0.6657 -0.4280
vn -0.6510 0.6070 -0.4558
vn -0.7285 -0.6658 -0.1615
vn -0.7758 0.6071 -0.1720
vn -0.7348 -0.6658 0.1296
vn -0.7825 0.6071 0.1380
vn -0.6293 -0.6658 0.4009
vn -0.6702 0.6071 0.4270
vn -0.4280 -0.6658 0.6112
vn -0.4558 0.6071 0.6509
vn -0.1615 -0.6658 0.7285
vn -0.1720 0.6071 0.7758
vn 0.1296 -0.6657 0.7349
vn 0.1380 0.6070 0.7826
vn 0.4009 -0.6657 0.6293
vn 0.4270 0.6070 0.6702
vn 0.6112 -0.6658 0.4280
vn 0.6509 0.6071 0.4558
vn 0.7285 -0.6658 0.1615
vn 0.7758 0.6071 0.1720
vn 0.0948 0.9954 -0.0167
vn 0.0812 0.9954 -0.0517
vn 0.0940 0.9954 0.0208
vn 0.0789 0.9954 0.0552
vn 0.0517 0.9954 0.0812
vn 0.0167 0.9954 0.0948
vn -0.0208 0.9954 0.0940
vn -0.0552 0.9954 0.0789
vn -0.0812 0.9954 0.0517
vn -0.0948 0.9954 0.0167
vn -0.0940 0.9954 -0.0208
vn -0.0789 0.9954 -0.0552
vn -0.0517 0.9954 -0.0812
vn -0.0167 0.9954 -0.0948
vn 0.0208 0.9954 -0.0940
vn 0.0552 0.9954 -0.0789
# 129 vertex normals

vt 0.8503 0.1245 0.0000
vt 0.8497 0.1867 0.0000
vt 0.8384 0.1866 0.0000
vt 0.8389 0.1244 0.0000
vt 0.8492 0.2489 0.0000
vt 0.8379 0.2489 0.0000
vt 0.8366 0.0001 0.0000
vt 0.8360 0.0623 0.0000
vt 0.8247 0.0622 0.0000
vt 0.8252 0.0000 0.0000
vt 0.8355 0.1245 0.0000
vt 0.8241 0.1244 0.0000
vt 0.8349 0.1867 0.0000
vt 0.8236 0.1866 0.0000
vt 0.8344 0.2490 0.0000
vt 0.8230 0.2489 0.0000
vt 0.8790 0.0001 0.0000
vt 0.8787 0.0623 0.0000
vt 0.8673 0.0622 0.0000
vt 0.8676 0.0000 0.0000
vt 0.8784 0.1245 0.0000
vt 0.8670 0.1244 0.0000
vt 0.8781 0.1867 0.0000
vt 0.8667 0.1866 0.0000
vt 0.8778 0.2489 0.0000
vt 0.8664 0.2489 0.0000
vt 0.8653 0.0001 0.0000
vt 0.8650 0.0623 0.0000
vt 0.8536 0.0622 0.0000
vt 0.8539 0.0000 0.0000
vt 0.8647 0.1245 0.0000
vt 0.8533 0.1244 0.0000
vt 0.8644 0.1867 0.0000
vt 0.8530 0.1866 0.0000
vt 0.8641 0.2489 0.0000
vt 0.8527 0.2489 0.0000
vt 0.8513 0.0001 0.0000
vt 0.8508 0.0623 0.0000
vt 0.8394 0.0622 0.0000
vt 0.8399 0.0000 0.0000
vt 0.8214 0.1648 0.0000
vt 0.8090 0.2280 0.0000
vt 0.6829 0.1760 0.0000
vt 0.6850 0.1649 0.0000
vt 0.7733 0.2818 0.0000
vt 0.6768 0.1855 0.0000
vt 0.7198 0.3177 0.0000
vt 0.6675 0.1918 0.0000
vt 0.6566 0.3305 0.0000
vt 0.6564 0.1942 0.0000
vt 0.5933 0.3181 0.0000
vt 0.6453 0.1921 0.0000
vt 0.5396 0.2825 0.0000
vt 0.6359 0.1859 0.0000
vt 0.5036 0.2289 0.0000
vt 0.6295 0.1766 0.0000
vt 0.4909 0.1657 0.0000
vt 0.6272 0.1656 0.0000
vt 0.5032 0.1025 0.0000
vt 0.6293 0.1545 0.0000
vt 0.5389 0.0488 0.0000
vt 0.6354 0.1450 0.0000
vt 0.5924 0.0128 0.0000
vt 0.6448 0.1387 0.0000
vt 0.6556 0.0000 0.0000
vt 0.6558 0.1364 0.0000
vt 0.7189 0.0124 0.0000
vt 0.6669 0.1384 0.0000
vt 0.7726 0.0481 0.0000
vt 0.6763 0.1446 0.0000
vt 0.8086 0.1016 0.0000
vt 0.6827 0.1539 0.0000
vt 0.2528 0.2528 0.0000
vt 0.3247 0.2527 0.0000
vt 0.3193 0.2802 0.0000
vt 0.3038 0.3036 0.0000
vt 0.2805 0.3192 0.0000
vt 0.2530 0.3247 0.0000
vt 0.2254 0.3193 0.0000
vt 0.2021 0.3038 0.0000
vt 0.1864 0.2805 0.0000
vt 0.1809 0.2530 0.0000
vt 0.1863 0.2254 0.0000
vt 0.2019 0.2021 0.0000
vt 0.2252 0.1864 0.0000
vt 0.2527 0.1809 0.0000
vt 0.2802 0.1863 0.0000
vt 0.3036 0.2019 0.0000
vt 0.3192 0.2252 0.0000
vt 0.9996 0.3634 0.0000
vt 0.9996 0.3749 0.0000
vt 0.4897 0.3747 0.0000
vt 0.4897 0.3631 0.0000
vt 0.9996 0.3865 0.0000
vt 0.4897 0.3862 0.0000
vt 0.9996 0.4349 0.0000
vt 0.9996 0.4465 0.0000
vt 0.4897 0.4467 0.0000
vt 0.4897 0.4352 0.0000
vt 0.9996 0.4580 0.0000
vt 0.4897 0.4583 0.0000
vt 0.9996 0.4696 0.0000
vt 0.4897 0.4698 0.0000
vt 0.9996 0.4811 0.0000
vt 0.4897 0.4814 0.0000
vt 0.9996 0.4823 0.0000
vt 0.9996 0.4938 0.0000
vt 0.4897 0.4941 0.0000
vt 0.4897 0.4825 0.0000
vt 0.9996 0.5054 0.0000
vt 0.4897 0.5056 0.0000
vt 0.9996 0.5169 0.0000
vt 0.4897 0.5172 0.0000
vt 0.9996 0.5285 0.0000
vt 0.4897 0.5287 0.0000
vt 0.9734 0.3876 0.0000
vt 0.9734 0.3992 0.0000
vt 0.4635 0.3994 0.0000
vt 0.4635 0.3879 0.0000
vt 0.9734 0.4107 0.0000
vt 0.4635 0.4109 0.0000
vt 0.9734 0.4222 0.0000
vt 0.4635 0.4225 0.0000
vt 0.9734 0.4338 0.0000
vt 0.4635 0.4340 0.0000
vt 0.9996 0.3403 0.0000
vt 0.9996 0.3518 0.0000
vt 0.4897 0.3516 0.0000
vt 0.4897 0.3400 0.0000
vt 0.9227 0.7258 0.0000
vt 0.9226 0.8239 0.0000
vt 0.9008 0.8239 0.0000
vt 0.9009 0.7258 0.0000
vt 0.9225 0.9220 0.0000
vt 0.9007 0.9219 0.0000
vt 0.9487 0.5298 0.0000
vt 0.9482 0.6278 0.0000
vt 0.9263 0.6277 0.0000
vt 0.9268 0.5297 0.0000
vt 0.9476 0.7259 0.0000
vt 0.9257 0.7258 0.0000
vt 0.9471 0.8240 0.0000
vt 0.9252 0.8238 0.0000
vt 0.9465 0.9220 0.0000
vt 0.9246 0.9219 0.0000
vt 0.9738 0.5298 0.0000
vt 0.9733 0.6278 0.0000
vt 0.9514 0.6277 0.0000
vt 0.9520 0.5296 0.0000
vt 0.9727 0.7259 0.0000
vt 0.9508 0.7258 0.0000
vt 0.9722 0.8240 0.0000
vt 0.9503 0.8238 0.0000
vt 0.9716 0.9220 0.0000
vt 0.9497 0.9219 0.0000
vt 0.9997 0.5299 0.0000
vt 0.9987 0.6279 0.0000
vt 0.9768 0.6277 0.0000
vt 0.9778 0.5296 0.0000
vt 0.9976 0.7260 0.0000
vt 0.9758 0.7258 0.0000
vt 0.9966 0.8240 0.0000
vt 0.9747 0.8238 0.0000
vt 0.9956 0.9221 0.0000
vt 0.9737 0.9219 0.0000
vt 0.9229 0.5297 0.0000
vt 0.9228 0.6278 0.0000
vt 0.9010 0.6277 0.0000
vt 0.9011 0.5297 0.0000
vt 0.2712 0.7698 0.0000
vt 0.2757 0.7592 0.0000
vt 0.4930 0.8034 0.0000
vt 0.4551 0.8938 0.0000
vt 0.2758 0.7476 0.0000
vt 0.4934 0.7053 0.0000
vt 0.2714 0.7370 0.0000
vt 0.4563 0.6146 0.0000
vt 0.2633 0.7288 0.0000
vt 0.3873 0.5449 0.0000
vt 0.2526 0.7243 0.0000
vt 0.2968 0.5070 0.0000
vt 0.2411 0.7242 0.0000
vt 0.1988 0.5066 0.0000
vt 0.2304 0.7286 0.0000
vt 0.1080 0.5437 0.0000
vt 0.2222 0.7367 0.0000
vt 0.0384 0.6127 0.0000
vt 0.2177 0.7474 0.0000
vt 0.0004 0.7032 0.0000
vt 0.2177 0.7589 0.0000
vt 0.0000 0.8012 0.0000
vt 0.2220 0.7696 0.0000
vt 0.0371 0.8920 0.0000
vt 0.2302 0.7778 0.0000
vt 0.1062 0.9616 0.0000
vt 0.2408 0.7823 0.0000
vt 0.1966 0.9996 0.0000
vt 0.2524 0.7823 0.0000
vt 0.2947 1.0000 0.0000
vt 0.2630 0.7780 0.0000
vt 0.3854 0.9629 0.0000
vt 0.3852 0.2526 0.0000
vt 0.3752 0.3032 0.0000
vt 0.3750 0.2019 0.0000
vt 0.3462 0.1591 0.0000
vt 0.3032 0.1305 0.0000
vt 0.2526 0.1205 0.0000
vt 0.2019 0.1306 0.0000
vt 0.1591 0.1594 0.0000
vt 0.1305 0.2024 0.0000
vt 0.1205 0.2531 0.0000
vt 0.1306 0.3037 0.0000
vt 0.1594 0.3466 0.0000
vt 0.2024 0.3752 0.0000
vt 0.2531 0.3852 0.0000
vt 0.3037 0.3750 0.0000
vt 0.3466 0.3462 0.0000
vt 0.5056 0.2524 0.0000
vt 0.4865 0.3492 0.0000
vt 0.4862 0.1557 0.0000
vt 0.4313 0.0738 0.0000
vt 0.3492 0.0191 0.0000
vt 0.2524 -0.0000 0.0000
vt 0.1557 0.0194 0.0000
vt 0.0738 0.0743 0.0000
vt 0.0191 0.1564 0.0000
vt 0.0000 0.2532 0.0000
vt 0.0194 0.3499 0.0000
vt 0.0743 0.4319 0.0000
vt 0.1564 0.4865 0.0000
vt 0.2532 0.5056 0.0000
vt 0.3499 0.4862 0.0000
vt 0.4319 0.4313 0.0000
# 233 texture coords

o Cylinder009
g Cylinder009
usemtl wire_153228153
s 2
f 1/1/1 2/2/2 3/3/3 4/4/4 
f 2/2/2 5/5/5 6/6/6 3/3/3 
f 5/7/5 7/8/7 8/9/8 6/10/6 
f 7/8/7 9/11/9 10/12/10 8/9/8 
f 9/11/9 11/13/11 12/14/12 10/12/10 
f 11/13/11 13/15/13 14/16/14 12/14/12 
f 13/17/13 15/18/15 16/19/16 14/20/14 
f 15/18/15 17/21/17 18/22/18 16/19/16 
f 17/21/17 19/23/19 20/24/20 18/22/18 
f 19/23/19 21/25/21 22/26/22 20/24/20 
f 21/27/21 23/28/23 24/29/24 22/30/22 
f 23/28/23 25/31/25 26/32/26 24/29/24 
f 25/31/25 27/33/27 28/34/28 26/32/26 
f 27/33/27 29/35/29 30/36/30 28/34/28 
f 29/37/29 31/38/31 32/39/32 30/40/30 
f 31/38/31 1/1/1 4/4/4 32/39/32 
s 1
f 4/41/4 3/42/3 33/43/33 34/44/34 
f 3/42/3 6/45/6 35/46/35 33/43/33 
f 6/45/6 8/47/8 36/48/36 35/46/35 
f 8/47/8 10/49/10 37/50/37 36/48/36 
f 10/49/10 12/51/12 38/52/38 37/50/37 
f 12/51/12 14/53/14 39/54/39 38/52/38 
f 14/53/14 16/55/16 40/56/40 39/54/39 
f 16/55/16 18/57/18 41/58/41 40/56/40 
f 18/57/18 20/59/20 42/60/42 41/58/41 
f 20/59/20 22/61/22 43/62/43 42/60/42 
f 22/61/22 24/63/24 44/64/44 43/62/43 
f 24/63/24 26/65/26 45/66/45 44/64/44 
f 26/65/26 28/67/28 46/68/46 45/66/45 
f 28/67/28 30/69/30 47/70/47 46/68/46 
f 30/69/30 32/71/32 48/72/48 47/70/47 
f 32/71/32 4/41/4 34/44/34 48/72/48 
f 49/73/49 50/74/50 51/75/51 
f 49/73/49 51/75/51 52/76/52 
f 49/73/49 52/76/52 53/77/53 
f 49/73/49 53/77/53 54/78/54 
f 49/73/49 54/78/54 55/79/55 
f 49/73/49 55/79/55 56/80/56 
f 49/73/49 56/80/56 57/81/57 
f 49/73/49 57/81/57 58/82/58 
f 49/73/49 58/82/58 59/83/59 
f 49/73/49 59/83/59 60/84/60 
f 49/73/49 60/84/60 61/85/61 
f 49/73/49 61/85/61 62/86/62 
f 49/73/49 62/86/62 63/87/63 
f 49/73/49 63/87/63 64/88/64 
f 49/73/49 64/88/64 65/89/65 
f 49/73/49 65/89/65 50/74/50 
s 2
f 34/90/34 33/91/33 66/92/66 67/93/67 
f 33/91/33 35/94/35 68/95/68 66/92/66 
f 35/96/35 36/97/36 69/98/69 68/99/68 
f 36/97/36 37/100/37 70/101/70 69/98/69 
f 37/100/37 38/102/38 71/103/71 70/101/70 
f 38/102/38 39/104/39 72/105/72 71/103/71 
f 39/106/39 40/107/40 73/108/73 72/109/72 
f 40/107/40 41/110/41 74/111/74 73/108/73 
f 41/110/41 42/112/42 75/113/75 74/111/74 
f 42/112/42 43/114/43 76/115/76 75/113/75 
f 43/116/43 44/117/44 77/118/77 76/119/76 
f 44/117/44 45/120/45 78/121/78 77/118/77 
f 45/120/45 46/122/46 79/123/79 78/121/78 
f 46/122/46 47/124/47 80/125/80 79/123/79 
f 47/126/47 48/127/48 81/128/81 80/129/80 
f 48/127/48 34/90/34 67/93/67 81/128/81 
f 82/130/82 83/131/83 84/132/84 85/133/85 
f 83/131/83 86/134/86 87/135/87 84/132/84 
f 86/136/86 88/137/88 89/138/89 87/139/87 
f 88/137/88 90/140/90 91/141/91 89/138/89 
f 90/140/90 92/142/92 93/143/93 91/141/91 
f 92/142/92 94/144/94 95/145/95 93/143/93 
f 94/146/94 96/147/96 97/148/97 95/149/95 
f 96/147/96 98/150/98 99/151/99 97/148/97 
f 98/150/98 100/152/100 101/153/101 99/151/99 
f 100/152/100 102/154/102 103/155/103 101/153/101 
f 102/156/102 104/157/104 105/158/105 103/159/103 
f 104/157/104 106/160/106 107/161/107 105/158/105 
f 106/160/106 108/162/108 109/163/109 107/161/107 
f 108/162/108 110/164/110 111/165/111 109/163/109 
f 110/166/110 112/167/112 113/168/113 111/169/111 
f 112/167/112 82/130/82 85/133/85 113/168/113 
s 1
f 67/170/67 66/171/66 83/172/83 82/173/82 
f 66/171/66 68/174/68 86/175/86 83/172/83 
f 68/174/68 69/176/69 88/177/88 86/175/86 
f 69/176/69 70/178/70 90/179/90 88/177/88 
f 70/178/70 71/180/71 92/181/92 90/179/90 
f 71/180/71 72/182/72 94/183/94 92/181/92 
f 72/182/72 73/184/73 96/185/96 94/183/94 
f 73/184/73 74/186/74 98/187/98 96/185/96 
f 74/186/74 75/188/75 100/189/100 98/187/98 
f 75/188/75 76/190/76 102/191/102 100/189/100 
f 76/190/76 77/192/77 104/193/104 102/191/102 
f 77/192/77 78/194/78 106/195/106 104/193/104 
f 78/194/78 79/196/79 108/197/108 106/195/106 
f 79/196/79 80/198/80 110/199/110 108/197/108 
f 80/198/80 81/200/81 112/201/112 110/199/110 
f 81/200/81 67/170/67 82/173/82 112/201/112 
f 51/75/51 50/74/50 114/202/114 115/203/115 
f 50/74/50 65/89/65 116/204/116 114/202/114 
f 65/89/65 64/88/64 117/205/117 116/204/116 
f 64/88/64 63/87/63 118/206/118 117/205/117 
f 63/87/63 62/86/62 119/207/119 118/206/118 
f 62/86/62 61/85/61 120/208/120 119/207/119 
f 61/85/61 60/84/60 121/209/121 120/208/120 
f 60/84/60 59/83/59 122/210/122 121/209/121 
f 59/83/59 58/82/58 123/211/123 122/210/122 
f 58/82/58 57/81/57 124/212/124 123/211/123 
f 57/81/57 56/80/56 125/213/125 124/212/124 
f 56/80/56 55/79/55 126/214/126 125/213/125 
f 55/79/55 54/78/54 127/215/127 126/214/126 
f 54/78/54 53/77/53 128/216/128 127/215/127 
f 53/77/53 52/76/52 129/217/129 128/216/128 
f 52/76/52 51/75/51 115/203/115 129/217/129 
f 114/202/114 85/218/85 84/219/84 115/203/115 
f 116/204/116 113/220/113 85/218/85 114/202/114 
f 117/205/117 111/221/111 113/220/113 116/204/116 
f 118/206/118 109/222/109 111/221/111 117/205/117 
f 119/207/119 107/223/107 109/222/109 118/206/118 
f 120/208/120 105/224/105 107/223/107 119/207/119 
f 121/209/121 103/225/103 105/224/105 120/208/120 
f 122/210/122 101/226/101 103/225/103 121/209/121 
f 123/211/123 99/227/99 101/226/101 122/210/122 
f 124/212/124 97/228/97 99/227/99 123/211/123 
f 125/213/125 95/229/95 97/228/97 124/212/124 
f 126/214/126 93/230/93 95/229/95 125/213/125 
f 127/215/127 91/231/91 93/230/93 126/214/126 
f 128/216/128 89/232/89 91/231/91 127/215/127 
f 129/217/129 87/233/87 89/232/89 128/216/128 
f 115/203/115 84/219/84 87/233/87 129/217/129 
# 112 polygons - 16 triangles

